<svg width="74" height="74" viewBox="0 0 74 74" fill="none" xmlns="http://www.w3.org/2000/svg">
<g clip-path="url(#clip0_172_59)">
<path d="M3.58105 63.2581V20.2903C3.58105 17.6538 5.7187 15.5161 8.35525 15.5161H32.2262H41.7746H65.6456C68.2821 15.5161 70.4198 17.6538 70.4198 20.2903V63.2581H3.58105Z" fill="#ECECEC"/>
<path d="M1.19336 63.2581H72.8063V68.0322C72.8063 70.6688 70.6686 72.8064 68.0321 72.8064H5.96755C3.331 72.8064 1.19336 70.6688 1.19336 68.0322V63.2581Z" fill="#8C95A4"/>
<path d="M8.35449 63.2581V21.4839C8.35449 20.825 8.8892 20.2903 9.54804 20.2903H32.2255H41.7738H64.4513C65.1101 20.2903 65.6448 20.825 65.6448 21.4839V63.2581H8.35449Z" fill="#39C3FC"/>
<path d="M72.8063 63.2581H1.19336V66.8387H72.8063V63.2581Z" fill="#798699"/>
<path d="M48.9354 63.2581V65.6452C48.9354 66.964 47.8672 68.0322 46.5483 68.0322H27.4516C26.1327 68.0322 25.0645 66.964 25.0645 65.6452V63.2581H48.9354Z" fill="#ECECEC"/>
<path d="M41.7741 25.0645H60.8708V58.4839H13.1289V25.0645H32.2257H41.7741Z" fill="#ECECEC"/>
<path d="M32.2256 5.96774V39.3871L35.3873 47.8183C35.6391 48.4903 36.2813 48.9355 36.9998 48.9355C37.7183 48.9355 38.3604 48.4903 38.6123 47.8183L41.774 39.3871V5.96774C41.774 3.33119 39.6363 1.19354 36.9998 1.19354C34.3632 1.19354 32.2256 3.33119 32.2256 5.96774Z" fill="#8C95A4"/>
<path d="M41.7742 13.129H37V39.3871H41.7742V13.129Z" fill="#FB5968"/>
<path d="M36.9998 13.129H32.2256V39.3871H36.9998V13.129Z" fill="#CD2C5A"/>
<path d="M41.774 8.35484H32.2256V13.129H41.774V8.35484Z" fill="#FFC729"/>
<path d="M27.4517 29.8387H17.9033V39.3871H27.4517V29.8387Z" fill="#FB5968"/>
<path d="M70.4198 59.6774H3.58105V63.2581H70.4198V59.6774Z" fill="#B6C1CE"/>
<path d="M65.6448 59.6774H8.35449V63.2581H65.6448V59.6774Z" fill="#148CE0"/>
<path d="M71.6129 62.0645V20.2903C71.6129 16.9997 68.9358 14.3226 65.6452 14.3226H42.9677V5.96774C42.9677 2.67713 40.2906 0 37 0C33.7094 0 31.0323 2.67713 31.0323 5.96774V14.3226H8.35484C5.06423 14.3226 2.3871 16.9997 2.3871 20.2903V62.0645H0V68.0323C0 71.3229 2.67713 74 5.96774 74H68.0323C71.3229 74 74 71.3229 74 68.0323V62.0645H71.6129ZM40.5806 11.9355H33.4194V9.54839H40.5806V11.9355ZM35.8065 14.3226V16.7097H38.1936V14.3226H40.5806V38.1936H38.1936V19.0968H35.8065V38.1936H33.4194V14.3226H35.8065ZM40.0519 40.5806L37.4953 47.3994C37.3414 47.81 36.6598 47.8112 36.5059 47.3982L33.9481 40.5806H40.0519ZM34.2692 48.2361C34.6929 49.3676 35.7909 50.129 37 50.129C38.2091 50.129 39.3071 49.3675 39.7308 48.2373L42.9677 39.6043V26.2581H59.6774V57.2903H14.3226V26.2581H31.0323V39.6043L34.2692 48.2361ZM37 2.3871C38.9741 2.3871 40.5806 3.99361 40.5806 5.96774V7.16129H33.4194V5.96774C33.4194 3.99361 35.0259 2.3871 37 2.3871ZM4.77419 20.2903C4.77419 18.3162 6.38071 16.7097 8.35484 16.7097H31.0323V19.0968H9.54839C8.2319 19.0968 7.16129 20.1674 7.16129 21.4839V59.6774H9.54839V21.4839H31.0323V23.871H11.9355V59.6774H62.0645V23.871H42.9677V21.4839H64.4516V59.6774H66.8387V21.4839C66.8387 20.1674 65.7681 19.0968 64.4516 19.0968H42.9677V16.7097H65.6452C67.6193 16.7097 69.2258 18.3162 69.2258 20.2903V62.0645H4.77419V20.2903ZM26.2581 64.4516H47.7419V65.6452C47.7419 66.304 47.206 66.8387 46.5484 66.8387H27.4516C26.794 66.8387 26.2581 66.304 26.2581 65.6452V64.4516ZM71.6129 68.0323C71.6129 70.0064 70.0064 71.6129 68.0323 71.6129H5.96774C3.99361 71.6129 2.3871 70.0064 2.3871 68.0323V64.4516H23.871V65.6452C23.871 67.6193 25.4775 69.2258 27.4516 69.2258H46.5484C48.5225 69.2258 50.129 67.6193 50.129 65.6452V64.4516H71.6129V68.0323Z" fill="black"/>
<path d="M28.6454 28.6452H16.71V40.5806H28.6454V28.6452ZM26.2583 38.1935H19.0971V31.0323H26.2583V38.1935Z" fill="black"/>
<path d="M57.29 28.6452H45.3545V31.0323H57.29V28.6452Z" fill="black"/>
<path d="M57.29 33.4194H45.3545V35.8065H57.29V33.4194Z" fill="black"/>
<path d="M57.29 38.1935H45.3545V40.5806H57.29V38.1935Z" fill="black"/>
<path d="M28.6454 42.9677H16.71V45.3548H28.6454V42.9677Z" fill="black"/>
<path d="M57.29 42.9677H45.3545V45.3548H57.29V42.9677Z" fill="black"/>
<path d="M57.2904 47.7419H42.9678V50.129H57.2904V47.7419Z" fill="black"/>
<path d="M31.0325 47.7419H16.71V50.129H31.0325V47.7419Z" fill="black"/>
<path d="M57.2904 52.5161H54.9033V54.9032H57.2904V52.5161Z" fill="black"/>
<path d="M52.5164 52.5161H16.71V54.9032H52.5164V52.5161Z" fill="black"/>
<path d="M7.16151 66.8387H4.77441V69.2258H7.16151V66.8387Z" fill="black"/>
<path d="M11.9359 66.8387H9.54883V69.2258H11.9359V66.8387Z" fill="black"/>
<path d="M16.7094 66.8387H14.3223V69.2258H16.7094V66.8387Z" fill="black"/>
</g>
<defs>
<clipPath id="clip0_172_59">
<rect width="74" height="74" fill="white"/>
</clipPath>
</defs>
</svg>
