<svg width="74" height="74" viewBox="0 0 74 74" fill="none" xmlns="http://www.w3.org/2000/svg">
<g clip-path="url(#clip0_172_0)">
<path d="M71.7745 10.8345C70.5352 12.2044 68.7561 13.6007 66.4725 14.9999C65.9856 15.2991 65.4751 15.5983 64.9414 15.8976C63.0538 16.9535 60.9198 17.9905 58.5951 18.982C57.9014 19.2783 57.2692 19.5364 56.7222 19.7535C55.4329 20.2639 54.6116 20.5513 54.5632 20.5675C54.4458 20.6086 54.3241 20.6276 54.2024 20.6276C53.9999 20.6276 53.799 20.572 53.6231 20.4633C53.34 20.2887 53.1524 19.9955 53.1112 19.6669C52.9396 18.3147 52.9587 16.9243 53.1654 15.5354C53.2549 14.934 53.8166 14.5219 54.415 14.6099C55.0164 14.6994 55.4314 15.2598 55.3419 15.861C55.2348 16.5722 55.1864 17.2836 55.1952 17.9862C55.4181 17.9011 55.6659 17.8044 55.9343 17.6987C56.4623 17.4876 57.0695 17.2397 57.731 16.9581C59.9838 15.9974 62.0474 14.9957 63.866 13.9778C64.3251 13.7196 64.8239 13.4307 65.3371 13.1139C68.6899 11.0473 72.7452 7.83244 71.5793 4.89167C71.0086 3.45141 70.0026 2.64623 68.5916 2.49664C65.3693 2.15482 60.8007 5.09994 57.951 9.35045L57.1003 10.7936C56.7923 11.3172 56.1176 11.4918 55.5939 11.1837C55.0703 10.8757 54.8959 10.201 55.2039 9.67738L56.0706 8.20635C56.0809 8.18871 56.0926 8.17108 56.1043 8.15345C59.4278 3.17854 64.7782 -0.121546 68.8233 0.30829C71.0482 0.544454 72.7526 1.88498 73.6238 4.08056C74.4864 6.25416 73.863 8.52749 71.7745 10.8345Z" fill="#DB5C6E"/>
<path d="M54.2026 20.6279C54.0001 20.6279 53.7988 20.572 53.6226 20.4626C53.3409 20.2877 53.153 19.995 53.1113 19.6661C52.94 18.3137 52.9582 16.9237 53.1656 15.5351C53.2553 14.9341 53.8169 14.5208 54.4159 14.6097C55.0168 14.6994 55.4311 15.2593 55.3415 15.8601C55.2353 16.5718 55.1869 17.2829 55.1963 17.9862C55.8623 17.7299 56.7362 17.3821 57.7322 16.9576C59.9846 15.9977 62.0483 14.9951 63.8661 13.9773C67.3239 12.0402 72.9242 8.28367 71.5796 4.89167C71.0087 3.4517 70.0035 2.64565 68.5924 2.49592C65.3692 2.15425 60.8007 5.09921 57.9507 9.34973L57.1007 10.7937C56.7923 11.3172 56.1184 11.4915 55.5947 11.1837C55.0712 10.8756 54.8966 10.2013 55.2048 9.67768L56.071 8.20635C56.0815 8.18843 56.0928 8.17065 56.1043 8.1533C59.428 3.1781 64.7788 -0.121833 68.8245 0.308148C71.0489 0.544167 72.7538 1.88397 73.6249 4.08085C74.4864 6.25431 73.8639 8.52648 71.7746 10.8345C70.2707 12.4959 67.9717 14.199 64.9413 15.8969C63.0546 16.9531 60.9194 17.9908 58.5949 18.9814C56.2723 19.9716 54.6322 20.5432 54.5635 20.5671C54.446 20.6079 54.324 20.6279 54.2026 20.6279Z" fill="#DB5C6E"/>
<path d="M65.3825 38.7103C65.9742 38.0156 66.3856 37.183 66.5691 36.2898C67.2204 33.1183 68.1144 24.9399 63.7818 13.1655C63.2333 11.6735 62.056 10.4962 60.564 9.94767C48.7896 5.61505 40.611 6.50927 37.4406 7.16139C36.5464 7.34379 35.7137 7.75513 35.0201 8.348C22.0473 19.4136 12.2397 29.1103 1.32829 41.7012C-0.376459 43.668 -0.450026 46.5723 1.16395 48.6137C8.2165 57.5291 16.2004 65.5131 25.116 72.5657C27.1573 74.1797 30.0615 74.1061 32.0283 72.4014C44.6202 61.4908 54.3159 51.6822 65.3825 38.7103ZM51.1919 22.5376C49.5296 20.8754 49.5296 18.1797 51.1919 16.5175C52.8543 14.8551 55.5498 14.8551 57.2122 16.5175C58.8746 18.1799 58.8744 20.8754 57.2122 22.5378C55.5498 24.2 52.8541 24.2 51.1919 22.5376Z" fill="#FFD064"/>
<path d="M37.4408 7.16139C36.5462 7.34451 35.7141 7.75527 35.0205 8.3477C22.0465 19.4135 12.2401 29.1112 1.32766 41.7012C-0.376655 43.6675 -0.449643 46.5732 1.1639 48.614C1.28603 48.7688 1.40946 48.9235 1.53159 49.0769C1.24137 47.5155 1.75778 45.7248 3.00971 44.3121C14.3016 31.5763 24.3194 21.6553 37.4275 10.1876C38.1272 9.5729 38.9444 9.11878 39.8017 8.87467C42.2235 8.17947 47.6567 7.08248 55.202 8.25101C46.3051 5.89458 40.1052 6.61362 37.4408 7.16139Z" fill="#FFC250"/>
<path d="M17.6239 48.58C17.4289 48.385 17.2686 48.1487 17.1576 47.8773C16.7107 46.784 17.2348 45.5356 18.328 45.0887L44.6343 34.3354C45.7274 33.8887 46.9756 34.4122 47.4229 35.5057C47.8698 36.5989 47.3457 37.8474 46.2525 38.2943L19.9462 49.0475C19.1242 49.3836 18.2147 49.1708 17.6239 48.58Z" fill="#DB5C6E"/>
<path d="M26.0313 34.1718C23.3028 31.4434 23.5527 26.7542 26.5882 23.7186C29.6236 20.683 34.3129 20.4334 37.0414 23.1617C39.7699 25.8902 39.5201 30.5795 36.4847 33.6149C33.4492 36.6504 28.7598 36.9003 26.0313 34.1718ZM34.0169 26.186C32.9742 25.1432 30.9569 25.3982 29.6122 26.7429C28.2675 28.0876 28.0125 30.1047 29.0553 31.1476C30.0983 32.1906 32.1153 31.9356 33.4601 30.5909C34.8049 29.246 35.0599 27.229 34.0169 26.186Z" fill="#DB5C6E"/>
<path d="M26.8888 60.3678C24.1603 57.6394 24.4101 52.95 27.4455 49.9146C30.481 46.8791 35.1703 46.6294 37.8987 49.3579C40.6272 52.0863 40.3773 56.7755 37.3419 59.8109C34.3066 62.8464 29.6172 63.0961 26.8888 60.3678ZM34.8746 52.382C33.8316 51.3391 31.8146 51.594 30.4698 52.9388C29.1251 54.2835 28.8702 56.3006 29.9131 57.3435C30.9559 58.3863 32.9731 58.1313 34.3178 56.7866C35.6624 55.4419 35.9174 53.4248 34.8746 52.382Z" fill="#DB5C6E"/>
<path d="M54.2022 24.8827C52.8305 24.8827 51.4586 24.3605 50.4142 23.3161C48.3255 21.2273 48.3255 17.8288 50.4142 15.7401C51.4261 14.7282 52.7714 14.171 54.2024 14.171C55.6333 14.171 56.9784 14.7282 57.9904 15.7401C60.0792 17.8288 60.0792 21.2273 57.9904 23.3161C56.9459 24.3605 55.5741 24.8827 54.2022 24.8827ZM54.2024 16.3711C53.3591 16.3711 52.5663 16.6995 51.97 17.2958C50.7388 18.5268 50.7388 20.5297 51.97 21.7605C53.2011 22.9916 55.2039 22.9913 56.4345 21.7605C57.6657 20.5295 57.6657 18.5266 56.4345 17.2958C55.8383 16.6995 55.0456 16.3711 54.2024 16.3711Z" fill="#FFC250"/>
<path d="M66.4725 14.9998C65.9856 15.2989 65.4751 15.5981 64.9413 15.8974C63.0538 16.9534 60.9197 17.9904 58.5951 18.9819C57.9014 19.2782 57.2692 19.5363 56.7221 19.7534C56.329 19.1417 56.0563 18.4451 55.9346 17.6986C56.4625 17.4874 57.0697 17.2396 57.7312 16.958C59.984 15.9973 62.0477 14.9956 63.8663 13.9776C64.3253 13.7195 64.8241 13.4306 65.3373 13.1138C65.8358 13.6533 66.2246 14.2929 66.4725 14.9998Z" fill="#DB5C6E"/>
</g>
<defs>
<clipPath id="clip0_172_0">
<rect width="74" height="74" fill="white"/>
</clipPath>
</defs>
</svg>
