<svg width="139" height="17" viewBox="0 0 139 17" fill="none" xmlns="http://www.w3.org/2000/svg">
<path d="M5.16113 7.54199L0.0546875 5.75781V3.31445L7.70996 6.52246V8.58789L0.0546875 11.8047V9.35254L5.16113 7.54199ZM19.4873 8.7373C19.3877 10.1143 18.8779 11.1982 17.958 11.9893C17.0439 12.7803 15.8369 13.1758 14.3369 13.1758C12.6963 13.1758 11.4043 12.625 10.4609 11.5234C9.52344 10.416 9.05469 8.89844 9.05469 6.9707V6.18848C9.05469 4.95801 9.27148 3.87402 9.70508 2.93652C10.1387 1.99902 10.7568 1.28125 11.5596 0.783203C12.3682 0.279297 13.3057 0.0273438 14.3721 0.0273438C15.8486 0.0273438 17.0381 0.422852 17.9404 1.21387C18.8428 2.00488 19.3643 3.11523 19.5049 4.54492H16.8682C16.8037 3.71875 16.5723 3.12109 16.1738 2.75195C15.7812 2.37695 15.1807 2.18945 14.3721 2.18945C13.4932 2.18945 12.834 2.50586 12.3945 3.13867C11.9609 3.76562 11.7383 4.74121 11.7266 6.06543V7.03223C11.7266 8.41504 11.9346 9.42578 12.3506 10.0645C12.7725 10.7031 13.4346 11.0225 14.3369 11.0225C15.1514 11.0225 15.7578 10.8379 16.1562 10.4688C16.5605 10.0938 16.792 9.5166 16.8506 8.7373H19.4873ZM20.6562 8.15723C20.6562 7.21387 20.8379 6.37305 21.2012 5.63477C21.5645 4.89648 22.0859 4.3252 22.7656 3.9209C23.4512 3.5166 24.2451 3.31445 25.1475 3.31445C26.4307 3.31445 27.4766 3.70703 28.2852 4.49219C29.0996 5.27734 29.5537 6.34375 29.6475 7.69141L29.665 8.3418C29.665 9.80078 29.2578 10.9727 28.4434 11.8574C27.6289 12.7363 26.5361 13.1758 25.165 13.1758C23.7939 13.1758 22.6982 12.7363 21.8779 11.8574C21.0635 10.9785 20.6562 9.7832 20.6562 8.27148V8.15723ZM23.1963 8.3418C23.1963 9.24414 23.3662 9.93555 23.7061 10.416C24.0459 10.8906 24.5322 11.1279 25.165 11.1279C25.7803 11.1279 26.2607 10.8936 26.6064 10.4248C26.9521 9.9502 27.125 9.19434 27.125 8.15723C27.125 7.27246 26.9521 6.58691 26.6064 6.10059C26.2607 5.61426 25.7744 5.37109 25.1475 5.37109C24.5264 5.37109 24.0459 5.61426 23.7061 6.10059C23.3662 6.58105 23.1963 7.32812 23.1963 8.3418ZM33.5674 3.49023L33.6465 4.58887C34.3262 3.73926 35.2373 3.31445 36.3799 3.31445C37.3877 3.31445 38.1377 3.61035 38.6299 4.20215C39.1221 4.79395 39.374 5.67871 39.3857 6.85645V13H36.8457V6.91797C36.8457 6.37891 36.7285 5.98926 36.4941 5.74902C36.2598 5.50293 35.8701 5.37988 35.3252 5.37988C34.6104 5.37988 34.0742 5.68457 33.7168 6.29395V13H31.1768V3.49023H33.5674ZM44.3604 1.15234V3.49023H45.9863V5.35352H44.3604V10.0996C44.3604 10.4512 44.4277 10.7031 44.5625 10.8555C44.6973 11.0078 44.9551 11.084 45.3359 11.084C45.6172 11.084 45.8662 11.0635 46.083 11.0225V12.9473C45.585 13.0996 45.0723 13.1758 44.5449 13.1758C42.7637 13.1758 41.8555 12.2764 41.8203 10.4775V5.35352H40.4316V3.49023H41.8203V1.15234H44.3604ZM52.9121 13C52.7949 12.7715 52.71 12.4873 52.6572 12.1475C52.042 12.833 51.2422 13.1758 50.2578 13.1758C49.3262 13.1758 48.5527 12.9062 47.9375 12.3672C47.3281 11.8281 47.0234 11.1484 47.0234 10.3281C47.0234 9.32031 47.3955 8.54688 48.1396 8.00781C48.8896 7.46875 49.9707 7.19629 51.3828 7.19043H52.5518V6.64551C52.5518 6.20605 52.4375 5.85449 52.209 5.59082C51.9863 5.32715 51.6318 5.19531 51.1455 5.19531C50.7178 5.19531 50.3809 5.29785 50.1348 5.50293C49.8945 5.70801 49.7744 5.98926 49.7744 6.34668H47.2344C47.2344 5.7959 47.4043 5.28613 47.7441 4.81738C48.084 4.34863 48.5645 3.98242 49.1855 3.71875C49.8066 3.44922 50.5039 3.31445 51.2773 3.31445C52.4492 3.31445 53.3779 3.61035 54.0635 4.20215C54.7549 4.78809 55.1006 5.61426 55.1006 6.68066V10.8027C55.1064 11.7051 55.2324 12.3877 55.4785 12.8506V13H52.9121ZM50.8115 11.2334C51.1865 11.2334 51.5322 11.1514 51.8486 10.9873C52.165 10.8174 52.3994 10.5918 52.5518 10.3105V8.67578H51.6025C50.3311 8.67578 49.6543 9.11523 49.5723 9.99414L49.5635 10.1436C49.5635 10.46 49.6748 10.7207 49.8975 10.9258C50.1201 11.1309 50.4248 11.2334 50.8115 11.2334ZM61.0068 11.1279C61.4756 11.1279 61.8564 10.999 62.1494 10.7412C62.4424 10.4834 62.5947 10.1406 62.6064 9.71289H64.9883C64.9824 10.3574 64.8066 10.9492 64.4609 11.4883C64.1152 12.0215 63.6406 12.4375 63.0371 12.7363C62.4395 13.0293 61.7773 13.1758 61.0508 13.1758C59.6914 13.1758 58.6191 12.7451 57.834 11.8838C57.0488 11.0166 56.6562 9.82129 56.6562 8.29785V8.13086C56.6562 6.66602 57.0459 5.49707 57.8252 4.62402C58.6045 3.75098 59.6738 3.31445 61.0332 3.31445C62.2227 3.31445 63.1748 3.6543 63.8896 4.33398C64.6104 5.00781 64.9766 5.90723 64.9883 7.03223H62.6064C62.5947 6.54004 62.4424 6.1416 62.1494 5.83691C61.8564 5.52637 61.4697 5.37109 60.9893 5.37109C60.3975 5.37109 59.9492 5.58789 59.6445 6.02148C59.3457 6.44922 59.1963 7.14648 59.1963 8.11328V8.37695C59.1963 9.35547 59.3457 10.0586 59.6445 10.4863C59.9434 10.9141 60.3975 11.1279 61.0068 11.1279ZM69.4795 1.15234V3.49023H71.1055V5.35352H69.4795V10.0996C69.4795 10.4512 69.5469 10.7031 69.6816 10.8555C69.8164 11.0078 70.0742 11.084 70.4551 11.084C70.7363 11.084 70.9854 11.0635 71.2021 11.0225V12.9473C70.7041 13.0996 70.1914 13.1758 69.6641 13.1758C67.8828 13.1758 66.9746 12.2764 66.9395 10.4775V5.35352H65.5508V3.49023H66.9395V1.15234H69.4795ZM82.1533 10.3721C82.1533 10.0615 81.998 9.81836 81.6875 9.64258C81.3828 9.46094 80.8906 9.2998 80.2109 9.15918C77.9492 8.68457 76.8184 7.72363 76.8184 6.27637C76.8184 5.43262 77.167 4.72949 77.8643 4.16699C78.5674 3.59863 79.4844 3.31445 80.6152 3.31445C81.8223 3.31445 82.7861 3.59863 83.5068 4.16699C84.2334 4.73535 84.5967 5.47363 84.5967 6.38184H82.0566C82.0566 6.01855 81.9395 5.71973 81.7051 5.48535C81.4707 5.24512 81.1045 5.125 80.6064 5.125C80.1787 5.125 79.8477 5.22168 79.6133 5.41504C79.3789 5.6084 79.2617 5.85449 79.2617 6.15332C79.2617 6.43457 79.3936 6.66309 79.6572 6.83887C79.9268 7.00879 80.3779 7.1582 81.0107 7.28711C81.6436 7.41016 82.1768 7.55078 82.6104 7.70898C83.9521 8.20117 84.623 9.05371 84.623 10.2666C84.623 11.1338 84.251 11.8369 83.5068 12.376C82.7627 12.9092 81.8018 13.1758 80.624 13.1758C79.8271 13.1758 79.1182 13.0352 78.4971 12.7539C77.8818 12.4668 77.3984 12.0771 77.0469 11.585C76.6953 11.0869 76.5195 10.5508 76.5195 9.97656H78.9277C78.9512 10.4277 79.1182 10.7734 79.4287 11.0137C79.7393 11.2539 80.1553 11.374 80.6768 11.374C81.1631 11.374 81.5293 11.2832 81.7754 11.1016C82.0273 10.9141 82.1533 10.6709 82.1533 10.3721ZM91.9619 12.0332C91.335 12.7949 90.4678 13.1758 89.3604 13.1758C88.3408 13.1758 87.5615 12.8828 87.0225 12.2969C86.4893 11.7109 86.2168 10.8525 86.2051 9.72168V3.49023H88.7451V9.63379C88.7451 10.624 89.1963 11.1191 90.0986 11.1191C90.96 11.1191 91.5518 10.8203 91.874 10.2227V3.49023H94.4229V13H92.0322L91.9619 12.0332ZM104.899 8.33301C104.899 9.79785 104.565 10.9727 103.897 11.8574C103.235 12.7363 102.339 13.1758 101.208 13.1758C100.247 13.1758 99.4707 12.8418 98.8789 12.1738V16.6562H96.3389V3.49023H98.6943L98.7822 4.42188C99.3975 3.68359 100.2 3.31445 101.19 3.31445C102.362 3.31445 103.273 3.74805 103.924 4.61523C104.574 5.48242 104.899 6.67773 104.899 8.20117V8.33301ZM102.359 8.14844C102.359 7.26367 102.201 6.58105 101.885 6.10059C101.574 5.62012 101.12 5.37988 100.522 5.37988C99.7256 5.37988 99.1777 5.68457 98.8789 6.29395V10.1875C99.1895 10.8145 99.7432 11.1279 100.54 11.1279C101.753 11.1279 102.359 10.1348 102.359 8.14844ZM115.042 8.33301C115.042 9.79785 114.708 10.9727 114.04 11.8574C113.378 12.7363 112.481 13.1758 111.351 13.1758C110.39 13.1758 109.613 12.8418 109.021 12.1738V16.6562H106.481V3.49023H108.837L108.925 4.42188C109.54 3.68359 110.343 3.31445 111.333 3.31445C112.505 3.31445 113.416 3.74805 114.066 4.61523C114.717 5.48242 115.042 6.67773 115.042 8.20117V8.33301ZM112.502 8.14844C112.502 7.26367 112.344 6.58105 112.027 6.10059C111.717 5.62012 111.263 5.37988 110.665 5.37988C109.868 5.37988 109.32 5.68457 109.021 6.29395V10.1875C109.332 10.8145 109.886 11.1279 110.683 11.1279C111.896 11.1279 112.502 10.1348 112.502 8.14844ZM116.229 8.15723C116.229 7.21387 116.41 6.37305 116.773 5.63477C117.137 4.89648 117.658 4.3252 118.338 3.9209C119.023 3.5166 119.817 3.31445 120.72 3.31445C122.003 3.31445 123.049 3.70703 123.857 4.49219C124.672 5.27734 125.126 6.34375 125.22 7.69141L125.237 8.3418C125.237 9.80078 124.83 10.9727 124.016 11.8574C123.201 12.7363 122.108 13.1758 120.737 13.1758C119.366 13.1758 118.271 12.7363 117.45 11.8574C116.636 10.9785 116.229 9.7832 116.229 8.27148V8.15723ZM118.769 8.3418C118.769 9.24414 118.938 9.93555 119.278 10.416C119.618 10.8906 120.104 11.1279 120.737 11.1279C121.353 11.1279 121.833 10.8936 122.179 10.4248C122.524 9.9502 122.697 9.19434 122.697 8.15723C122.697 7.27246 122.524 6.58691 122.179 6.10059C121.833 5.61426 121.347 5.37109 120.72 5.37109C120.099 5.37109 119.618 5.61426 119.278 6.10059C118.938 6.58105 118.769 7.32812 118.769 8.3418ZM132.146 5.87207C131.8 5.8252 131.495 5.80176 131.231 5.80176C130.271 5.80176 129.641 6.12695 129.342 6.77734V13H126.802V3.49023H129.201L129.271 4.62402C129.781 3.75098 130.487 3.31445 131.39 3.31445C131.671 3.31445 131.935 3.35254 132.181 3.42871L132.146 5.87207ZM136.856 1.15234V3.49023H138.482V5.35352H136.856V10.0996C136.856 10.4512 136.924 10.7031 137.059 10.8555C137.193 11.0078 137.451 11.084 137.832 11.084C138.113 11.084 138.362 11.0635 138.579 11.0225V12.9473C138.081 13.0996 137.568 13.1758 137.041 13.1758C135.26 13.1758 134.352 12.2764 134.316 10.4775V5.35352H132.928V3.49023H134.316V1.15234H136.856Z" fill="#293A96"/>
</svg>
