<svg width="74" height="74" viewBox="0 0 74 74" fill="none" xmlns="http://www.w3.org/2000/svg">
<g clip-path="url(#clip0_172_13)">
<path d="M33.2275 56.0226C32.6287 56.0226 32.1436 56.5078 32.1436 57.1066V65.4079C32.1436 66.0067 32.6287 66.4919 33.2275 66.4919C33.8263 66.4919 34.3115 66.0067 34.3115 65.4079V57.1066C34.3115 56.5078 33.8263 56.0226 33.2275 56.0226Z" fill="#45D987"/>
<path d="M24.4541 56.0226C23.8553 56.0226 23.3701 56.5078 23.3701 57.1066V65.4079C23.3701 66.0067 23.8553 66.4919 24.4541 66.4919C25.0529 66.4919 25.5381 66.0067 25.5381 65.4079V57.1066C25.5381 56.5078 25.0529 56.0226 24.4541 56.0226Z" fill="#45D987"/>
<path d="M28.8408 56.5441C28.242 56.5441 27.7568 57.0293 27.7568 57.6281V70.659C27.7568 71.2578 28.242 71.743 28.8408 71.743C29.4396 71.743 29.9248 71.2578 29.9248 70.659V57.6281C29.9248 57.0294 29.4395 56.5441 28.8408 56.5441Z" fill="#45D987"/>
<path d="M57.3701 26.6192H65.6714C66.2702 26.6192 66.7554 26.134 66.7554 25.5352C66.7554 24.9364 66.2702 24.4512 65.6714 24.4512H57.3701C56.7713 24.4512 56.2861 24.9364 56.2861 25.5352C56.2861 26.134 56.7713 26.6192 57.3701 26.6192Z" fill="#45D987"/>
<path d="M65.6714 33.2245H57.3701C56.7713 33.2245 56.2861 33.7097 56.2861 34.3085C56.2861 34.9073 56.7713 35.3925 57.3701 35.3925H65.6714C66.2702 35.3925 66.7554 34.9073 66.7554 34.3085C66.7554 33.7097 66.2702 33.2245 65.6714 33.2245Z" fill="#45D987"/>
<path d="M70.9945 28.8377H57.7031C57.1043 28.8377 56.6191 29.3229 56.6191 29.9217C56.6191 30.5205 57.1043 31.0057 57.7031 31.0057H70.9945C71.5933 31.0057 72.0785 30.5205 72.0785 29.9217C72.0785 29.3229 71.5933 28.8377 70.9945 28.8377Z" fill="#45D987"/>
<path d="M67.421 73.7384L52.4707 58.7881C52.1218 58.4392 52.1218 57.8735 52.4707 57.5247L57.5243 52.4711C57.8732 52.1222 58.4389 52.1222 58.7877 52.4711L73.738 67.4214C74.0869 67.7703 74.0869 68.336 73.738 68.6847L68.6843 73.7384C68.3354 74.0871 67.7699 74.0871 67.421 73.7384Z" fill="#F78E36"/>
<path d="M57.5247 52.4711L54.3662 55.6295C54.7151 55.2806 55.2808 55.2806 55.6296 55.6295L70.5799 70.5798C70.9288 70.9287 70.9288 71.4944 70.5799 71.8432L73.7383 68.6847C74.0872 68.3358 74.0872 67.7703 73.7383 67.4214L58.788 52.4711C58.4391 52.1222 57.8734 52.1222 57.5247 52.4711Z" fill="#F86F1B"/>
<path d="M46.5234 49.6931L49.6814 46.5352L56.5647 53.4185L53.4067 56.5764L46.5234 49.6931Z" fill="#4380A0"/>
<path d="M55.249 61.5778L61.5651 55.2617L64.7231 58.4197L58.407 64.7357L55.249 61.5778Z" fill="#7BE492"/>
<path d="M58.4072 58.42L61.5652 55.262L64.7232 58.42L61.5652 61.5779L58.4072 58.42Z" fill="#45D987"/>
<path d="M29.0342 58.0683C45.0693 58.0683 58.0683 45.0693 58.0683 29.0342C58.0683 12.999 45.0693 0 29.0342 0C12.999 0 0 12.999 0 29.0342C0 45.0693 12.999 58.0683 29.0342 58.0683Z" fill="#43809F"/>
<path d="M29.0342 0C28.2828 0 27.5379 0.0286172 26.8008 0.0846953C41.7924 1.22519 53.6016 13.7506 53.6016 29.0343C53.6016 44.3181 41.7924 56.8434 26.8008 57.9839C27.5379 58.04 28.2827 58.0686 29.0342 58.0686C45.0694 58.0686 58.0684 45.0696 58.0684 29.0344C58.0684 12.9993 45.0694 0 29.0342 0V0Z" fill="#3A7190"/>
<path d="M29.0342 53.6016C42.6024 53.6016 53.6016 42.6024 53.6016 29.0342C53.6016 15.4659 42.6024 4.46674 29.0342 4.46674C15.466 4.46674 4.4668 15.4659 4.4668 29.0342C4.4668 42.6024 15.466 53.6016 29.0342 53.6016Z" fill="#F3F3F3"/>
<path d="M29.0342 4.46674C28.2812 4.46674 27.5367 4.50272 26.8008 4.56935C39.3045 5.70161 49.1348 16.2405 49.1348 29.0342C49.1348 41.8278 39.3045 52.3667 26.8008 53.499C27.5367 53.5656 28.2812 53.6016 29.0342 53.6016C42.5807 53.6016 53.6016 42.5806 53.6016 29.0342C53.6016 15.4877 42.5808 4.46674 29.0342 4.46674Z" fill="#E4E4E4"/>
<path d="M24.9395 29.5553H16.0059V16.4527C16.0059 16.1238 16.2725 15.8571 16.6015 15.8571H24.3439C24.6728 15.8571 24.9395 16.1238 24.9395 16.4527V29.5553Z" fill="#29CEF6"/>
<path d="M20.4727 15.8571V29.5553H24.9394V16.4527C24.9394 16.1238 24.6727 15.8571 24.3438 15.8571H20.4727Z" fill="#22B5ED"/>
<path d="M42.8067 29.5553H33.873V22.1107C33.873 21.7817 34.1397 21.5151 34.4687 21.5151H42.2111C42.54 21.5151 42.8067 21.7817 42.8067 22.1107V29.5553Z" fill="#7BE492"/>
<path d="M38.3398 21.5151V29.5553H42.8066V22.1107C42.8066 21.7817 42.5399 21.5151 42.211 21.5151H38.3398Z" fill="#45D987"/>
<path d="M33.8731 29.5553H24.9395V10.7948C24.9395 10.4658 25.2061 10.1991 25.5351 10.1991H33.2775C33.6064 10.1991 33.8731 10.4658 33.8731 10.7948V29.5553Z" fill="#F78E36"/>
<path d="M29.4062 10.1991V29.5553H33.873V10.7948C33.873 10.4658 33.6063 10.1991 33.2774 10.1991H29.4062Z" fill="#F86F1B"/>
<path d="M45.418 28.4714H13.3945C12.7957 28.4714 12.3105 28.9566 12.3105 29.5553C12.3105 30.1541 12.7957 30.6393 13.3945 30.6393H45.418C46.0168 30.6393 46.502 30.1541 46.502 29.5553C46.502 28.9566 46.0168 28.4714 45.418 28.4714Z" fill="#43809F"/>
<path d="M41.9132 40.1674H36.6337L34.2373 34.0414C34.0736 33.6227 33.6653 33.3487 33.2182 33.3523C32.7685 33.3564 32.3678 33.6378 32.2114 34.0595L28.9163 42.9451L26.6052 36.3947C26.4636 35.9929 26.0996 35.7114 25.675 35.6752C25.2498 35.6378 24.8442 35.8547 24.6364 36.2268L22.4364 40.1673H17.1738C16.575 40.1673 16.0898 40.6524 16.0898 41.2512C16.0898 41.85 16.575 42.3352 17.1738 42.3352H23.0726C23.4654 42.3352 23.8276 42.1226 24.0191 41.7796L25.3591 39.3794L27.8684 46.4918C28.0202 46.9224 28.4254 47.2114 28.882 47.2152H28.8908C29.3436 47.2152 29.7493 46.9333 29.907 46.508L33.2547 37.4809L34.884 41.6461C35.0466 42.0616 35.4471 42.3352 35.8934 42.3352H41.9128C42.5116 42.3352 42.9968 41.85 42.9968 41.2512C42.9968 40.6524 42.512 40.1674 41.9132 40.1674Z" fill="#29CEF6"/>
</g>
<defs>
<clipPath id="clip0_172_13">
<rect width="74" height="74" fill="white"/>
</clipPath>
</defs>
</svg>
