<svg width="62" height="41" viewBox="0 0 62 41" fill="none" xmlns="http://www.w3.org/2000/svg">
<path d="M16.1611 21.542L11.0547 19.7578V17.3145L18.71 20.5225V22.5879L11.0547 25.8047V23.3525L16.1611 21.542ZM28.1406 21.7705H23.0781V27H20.4414V14.2031H28.7734V16.3389H23.0781V19.6436H28.1406V21.7705ZM35.8398 24.3633H31.2168L30.3379 27H27.5342L32.2979 14.2031H34.7412L39.5312 27H36.7275L35.8398 24.3633ZM31.9287 22.2275H35.1279L33.5195 17.4375L31.9287 22.2275ZM51.0273 20.8916C51.0273 22.0869 50.834 23.127 50.4473 24.0117C50.0605 24.8906 49.5244 25.5967 48.8389 26.1299L50.9658 27.7998L49.2871 29.2852L46.5625 27.0967C46.252 27.1494 45.9297 27.1758 45.5957 27.1758C44.5352 27.1758 43.5889 26.9209 42.7568 26.4111C41.9248 25.9014 41.2803 25.1748 40.8232 24.2314C40.3662 23.2822 40.1348 22.1924 40.1289 20.9619V20.3291C40.1289 19.0693 40.3545 17.9619 40.8057 17.0068C41.2627 16.0459 41.9043 15.3105 42.7305 14.8008C43.5625 14.2852 44.5117 14.0273 45.5781 14.0273C46.6445 14.0273 47.5908 14.2852 48.417 14.8008C49.249 15.3105 49.8906 16.0459 50.3418 17.0068C50.7988 17.9619 51.0273 19.0664 51.0273 20.3203V20.8916ZM48.3555 20.3115C48.3555 18.9697 48.1152 17.9502 47.6348 17.2529C47.1543 16.5557 46.4688 16.207 45.5781 16.207C44.6934 16.207 44.0107 16.5527 43.5303 17.2441C43.0498 17.9297 42.8066 18.9375 42.8008 20.2676V20.8916C42.8008 22.1982 43.041 23.2119 43.5215 23.9326C44.002 24.6533 44.6934 25.0137 45.5957 25.0137C46.4805 25.0137 47.1602 24.668 47.6348 23.9766C48.1094 23.2793 48.3496 22.2656 48.3555 20.9355V20.3115Z" fill="#293A96"/>
</svg>
