<svg width="74" height="74" viewBox="0 0 74 74" fill="none" xmlns="http://www.w3.org/2000/svg">
<path d="M3.46875 70.5312V64.9211C3.46875 61.0176 4.46312 57.1777 6.35938 53.7656C8.25562 50.3535 9.25 46.5136 9.25 42.6101V25.4375C9.25 13.9432 18.5682 4.625 30.0625 4.625C41.5568 4.625 50.875 13.9432 50.875 25.4375V42.6101C50.875 46.5136 51.8694 50.3535 53.7656 53.7656C55.6619 57.1777 56.6562 61.0176 56.6562 64.9211V70.5312H3.46875Z" fill="#E55648"/>
<path d="M23.125 56.6562L10.6005 59.6035C6.42181 60.5863 3.46875 64.3152 3.46875 68.6072V70.5312H56.6562V68.6072C56.6562 64.3152 53.7032 60.5863 49.5245 59.6035L37 56.6562H23.125Z" fill="#4AC3ED"/>
<path d="M23.125 56.6562L26.5938 70.5312H33.5312L37 56.6562H23.125Z" fill="#EAE8E5"/>
<path d="M37 48.5625V56.6562C37 60.4881 33.8943 63.5938 30.0625 63.5938C26.2307 63.5938 23.125 60.4881 23.125 56.6562V48.5625H37Z" fill="#EDC3AE"/>
<path d="M13.875 35.8438C11.3208 35.8438 9.25 33.7729 9.25 31.2188C9.25 28.6646 11.3208 26.5938 13.875 26.5938V35.8438Z" fill="#EDC3AE"/>
<path d="M46.25 35.8438C48.8042 35.8438 50.875 33.7729 50.875 31.2188C50.875 28.6646 48.8042 26.5938 46.25 26.5938V35.8438Z" fill="#EDC3AE"/>
<path d="M30.0625 52.0312C21.1224 52.0312 13.875 44.7839 13.875 35.8438V25.4375C13.875 16.4974 21.1224 9.25 30.0625 9.25C39.0026 9.25 46.25 16.4974 46.25 25.4375V35.8438C46.25 44.7839 39.0026 52.0312 30.0625 52.0312Z" fill="#F4D4BE"/>
<path d="M23.125 34.6875C24.4022 34.6875 25.4375 33.6522 25.4375 32.375C25.4375 31.0978 24.4022 30.0625 23.125 30.0625C21.8478 30.0625 20.8125 31.0978 20.8125 32.375C20.8125 33.6522 21.8478 34.6875 23.125 34.6875Z" fill="#304B68"/>
<path d="M37 34.6875C38.2772 34.6875 39.3125 33.6522 39.3125 32.375C39.3125 31.0978 38.2772 30.0625 37 30.0625C35.7228 30.0625 34.6875 31.0978 34.6875 32.375C34.6875 33.6522 35.7228 34.6875 37 34.6875Z" fill="#304B68"/>
<path d="M13.875 26.5938C13.875 26.5938 27.75 26.5938 34.6875 16.1875C37 25.4375 46.25 26.5938 46.25 26.5938H47.4062V25.4375C47.4062 15.8591 39.6409 8.09375 30.0625 8.09375C20.4841 8.09375 12.7188 15.8591 12.7188 25.4375V26.5938H13.875Z" fill="#E55648"/>
<path d="M46.3546 58.8647L37.0005 56.6562L33.5318 70.5312L43.938 65.9062L42.7818 62.4375L46.3546 58.8647ZM13.7715 58.8647L17.3443 62.4375L16.188 65.9062L26.5943 70.5312L23.1255 56.6562L13.7715 58.8647Z" fill="#31A9D4"/>
<path d="M70.5312 34.6875C67.9771 34.6875 65.9062 36.7583 65.9062 39.3125V41.625H60.125C58.8473 41.625 57.8125 42.6598 57.8125 43.9375C57.8125 45.2152 58.8473 46.25 60.125 46.25C58.8473 46.25 57.8125 47.2848 57.8125 48.5625C57.8125 49.8402 58.8473 50.875 60.125 50.875C58.8473 50.875 57.8125 51.9098 57.8125 53.1875C57.8125 54.4652 58.8473 55.5 60.125 55.5C58.8473 55.5 57.8125 56.5348 57.8125 57.8125C57.8125 59.0902 58.8473 60.125 60.125 60.125H62.4375V70.5312H70.5312V34.6875Z" fill="#F4D4BE"/>
<path d="M62.4375 60.125H67.0625L62.4375 68.2188V60.125Z" fill="#EDC3AE"/>
<path d="M23.125 34.6875C24.4022 34.6875 25.4375 33.6522 25.4375 32.375C25.4375 31.0978 24.4022 30.0625 23.125 30.0625C21.8478 30.0625 20.8125 31.0978 20.8125 32.375C20.8125 33.6522 21.8478 34.6875 23.125 34.6875Z" fill="#153049"/>
<path d="M37 34.6875C38.2772 34.6875 39.3125 33.6522 39.3125 32.375C39.3125 31.0978 38.2772 30.0625 37 30.0625C35.7228 30.0625 34.6875 31.0978 34.6875 32.375C34.6875 33.6522 35.7228 34.6875 37 34.6875Z" fill="#153049"/>
<path d="M30.0622 42.7813C27.9659 42.7813 26.0072 41.8112 24.5469 40.0502L26.3263 38.5748C27.3404 39.7958 28.6666 40.4688 30.0622 40.4688C31.4578 40.4688 32.784 39.7958 33.7969 38.5748L35.5763 40.0502C34.1172 41.8112 32.1585 42.7813 30.0622 42.7813Z" fill="#153049"/>
<path d="M70.5312 33.5312C67.34 33.5312 64.75 36.1213 64.75 39.3125V40.4688H60.125C58.2172 40.4688 56.6562 42.0297 56.6562 43.9375C56.6562 44.8278 56.9916 45.6372 57.5466 46.25C56.9916 46.8628 56.6562 47.6722 56.6562 48.5625C56.6562 49.4528 56.9916 50.2622 57.5466 50.875C56.9916 51.4878 56.6562 52.2972 56.6562 53.1875C56.6562 54.0778 56.9916 54.8872 57.5466 55.5C57.0494 56.055 56.7256 56.7603 56.6678 57.535C56.1822 56.0203 55.5462 54.5981 54.7716 53.1991C52.9794 49.9731 52.0312 46.3078 52.0312 42.6078V25.4375C52.0312 13.32 42.18 3.46875 30.0625 3.46875C17.945 3.46875 8.09375 13.32 8.09375 25.4375V42.6078C8.09375 46.3078 7.14563 49.9731 5.35344 53.1991C3.36469 56.7834 2.3125 60.8303 2.3125 64.9234V70.5312C2.3125 71.1672 2.83281 71.6875 3.46875 71.6875H56.6562C57.2922 71.6875 57.8125 71.1672 57.8125 70.5312V64.9234C57.8125 63.1891 57.6159 61.4547 57.2575 59.7666C57.8819 60.68 58.9341 61.2812 60.125 61.2812H61.2812V70.5312C61.2812 71.1672 61.8016 71.6875 62.4375 71.6875H70.5312C71.1672 71.6875 71.6875 71.1672 71.6875 70.5312V34.6875C71.6875 34.0516 71.1672 33.5312 70.5312 33.5312ZM52.7597 54.3322C54.0431 56.6331 54.8872 59.1653 55.2687 61.7784C53.8812 60.1828 51.985 59.0034 49.7881 58.4831L38.1562 55.7428V51.1756C43.3594 48.4237 47.0016 43.0934 47.3716 36.8959C48.2388 36.7225 49.0366 36.3525 49.7188 35.8438V42.6078C49.7188 46.7009 50.7709 50.7478 52.7597 54.3322ZM34.2828 18.6619C36.8728 24.9403 42.735 26.9637 45.0938 27.5303V35.8438C45.0938 44.1341 38.3528 50.875 30.0625 50.875C21.7722 50.875 15.0312 44.1341 15.0312 35.8438V27.7037C18.3612 27.4725 28.0506 26.1775 34.2828 18.6619ZM15.0312 25.3681C15.0659 17.1125 21.7953 10.4062 30.0625 10.4062C38.2603 10.4062 44.9434 16.9969 45.0822 25.16C42.6194 24.4894 37.4162 22.3272 35.8091 15.91C35.6934 15.4591 35.335 15.1238 34.8841 15.0428C34.4331 14.9734 33.9822 15.17 33.7278 15.5516C28.3512 23.5991 18.4075 25.1022 15.0312 25.3681ZM47.4062 34.4794V27.9581C48.7475 28.4322 49.7188 29.7156 49.7188 31.2188C49.7188 32.7219 48.7475 34.0053 47.4062 34.4794ZM10.4062 25.4375C10.4062 14.6034 19.2284 5.78125 30.0625 5.78125C40.8966 5.78125 49.7188 14.6034 49.7188 25.4375V26.5938C49.0481 26.085 48.2619 25.7266 47.4062 25.5531V25.4375C47.4062 15.8753 39.6247 8.09375 30.0625 8.09375C20.5003 8.09375 12.7188 15.8753 12.7188 25.4375V25.5531C11.8631 25.7266 11.0769 26.085 10.4062 26.5938V25.4375ZM12.7188 27.9581V34.4794C11.3775 34.0053 10.4062 32.7219 10.4062 31.2188C10.4062 29.7156 11.3775 28.4322 12.7188 27.9581ZM7.36531 54.3322C9.35406 50.7478 10.4062 46.7009 10.4062 42.6078V35.8438C11.0884 36.3525 11.8862 36.7225 12.7534 36.8959C13.1234 43.0934 16.7656 48.4237 21.9688 51.1756V55.7428L10.3369 58.4831C8.14 59.0034 6.24375 60.1828 4.85625 61.7784C5.23781 59.1653 6.08187 56.6331 7.36531 54.3322ZM4.625 69.375V68.6119C4.625 64.8309 7.19187 61.5934 10.8687 60.7262L13.4009 60.1366L16.0256 62.7497L15.0891 65.5363C14.9041 66.1028 15.17 66.7156 15.7134 66.9584L21.1478 69.375H4.625ZM17.6213 65.2819L18.4422 62.8075C18.5809 62.3913 18.4653 61.9288 18.1647 61.6166L16.0487 59.5006L22.2809 58.0438L24.8941 68.5078L17.6213 65.2819ZM32.6294 69.375H27.4956L26.0734 63.6978C27.2759 64.3916 28.6403 64.75 30.0625 64.75C31.4847 64.75 32.8606 64.38 34.0516 63.6863L32.6294 69.375ZM30.0625 62.4375C28.5131 62.4375 27.0678 61.8363 25.9694 60.7262C25.6109 60.3794 25.2872 59.9631 25.0328 59.5122L25.0212 59.5006L24.2812 56.5175V52.1931C26.085 52.8406 28.0275 53.1875 30.0625 53.1875C32.0975 53.1875 34.04 52.8406 35.8438 52.1931V56.5175L35.1038 59.4775C34.0863 61.3159 32.1553 62.4375 30.0625 62.4375ZM37.8441 58.0438L44.0762 59.5006L41.9603 61.6166C41.6597 61.9288 41.5441 62.3913 41.6828 62.8075L42.5037 65.2819L35.2309 68.5078L37.8441 58.0438ZM55.5 69.375H38.9772L44.4116 66.9584C44.955 66.7156 45.2209 66.1028 45.0359 65.5363L44.0994 62.7497L46.7241 60.1366L49.2562 60.7262C52.9331 61.5934 55.5 64.8309 55.5 68.6119V69.375ZM69.375 69.375H63.5938V60.125C63.5938 59.4891 63.0734 58.9688 62.4375 58.9688H60.125C59.4891 58.9688 58.9688 58.4484 58.9688 57.8125C58.9688 57.1766 59.4891 56.6562 60.125 56.6562C60.7609 56.6562 61.2812 56.1359 61.2812 55.5C61.2812 54.8641 60.7609 54.3438 60.125 54.3438C59.4891 54.3438 58.9688 53.8234 58.9688 53.1875C58.9688 52.5516 59.4891 52.0312 60.125 52.0312C60.7609 52.0312 61.2812 51.5109 61.2812 50.875C61.2812 50.2391 60.7609 49.7188 60.125 49.7188C59.4891 49.7188 58.9688 49.1984 58.9688 48.5625C58.9688 47.9266 59.4891 47.4062 60.125 47.4062C60.7609 47.4062 61.2812 46.8859 61.2812 46.25C61.2812 45.6141 60.7609 45.0938 60.125 45.0938C59.4891 45.0938 58.9688 44.5734 58.9688 43.9375C58.9688 43.3016 59.4891 42.7812 60.125 42.7812H65.9062C66.5422 42.7812 67.0625 42.2609 67.0625 41.625V39.3125C67.0625 37.8094 68.0338 36.5144 69.375 36.0403V69.375Z" fill="#153049"/>
</svg>
