<svg width="101" height="14" viewBox="0 0 101 14" fill="none" xmlns="http://www.w3.org/2000/svg">
<path d="M5.16113 7.54199L0.0546875 5.75781V3.31445L7.70996 6.52246V8.58789L0.0546875 11.8047V9.35254L5.16113 7.54199ZM12.0781 10.8818H17.6768V13H9.44141V0.203125H12.0781V10.8818ZM23.4072 13.1758C22.0127 13.1758 20.876 12.748 19.9971 11.8926C19.124 11.0371 18.6875 9.89746 18.6875 8.47363V8.22754C18.6875 7.27246 18.8721 6.41992 19.2412 5.66992C19.6104 4.91406 20.1318 4.33398 20.8057 3.92969C21.4854 3.51953 22.2588 3.31445 23.126 3.31445C24.4268 3.31445 25.4492 3.72461 26.1934 4.54492C26.9434 5.36523 27.3184 6.52832 27.3184 8.03418V9.07129H21.2627C21.3447 9.69238 21.5908 10.1904 22.001 10.5654C22.417 10.9404 22.9414 11.1279 23.5742 11.1279C24.5527 11.1279 25.3174 10.7734 25.8682 10.0645L27.1162 11.4619C26.7354 12.001 26.2197 12.4229 25.5693 12.7275C24.9189 13.0264 24.1982 13.1758 23.4072 13.1758ZM23.1172 5.37109C22.6133 5.37109 22.2031 5.54102 21.8867 5.88086C21.5762 6.2207 21.377 6.70703 21.2891 7.33984H24.8223V7.1377C24.8105 6.5752 24.6582 6.1416 24.3652 5.83691C24.0723 5.52637 23.6562 5.37109 23.1172 5.37109ZM34.2793 13C34.1621 12.7715 34.0771 12.4873 34.0244 12.1475C33.4092 12.833 32.6094 13.1758 31.625 13.1758C30.6934 13.1758 29.9199 12.9062 29.3047 12.3672C28.6953 11.8281 28.3906 11.1484 28.3906 10.3281C28.3906 9.32031 28.7627 8.54688 29.5068 8.00781C30.2568 7.46875 31.3379 7.19629 32.75 7.19043H33.9189V6.64551C33.9189 6.20605 33.8047 5.85449 33.5762 5.59082C33.3535 5.32715 32.999 5.19531 32.5127 5.19531C32.085 5.19531 31.748 5.29785 31.502 5.50293C31.2617 5.70801 31.1416 5.98926 31.1416 6.34668H28.6016C28.6016 5.7959 28.7715 5.28613 29.1113 4.81738C29.4512 4.34863 29.9316 3.98242 30.5527 3.71875C31.1738 3.44922 31.8711 3.31445 32.6445 3.31445C33.8164 3.31445 34.7451 3.61035 35.4307 4.20215C36.1221 4.78809 36.4678 5.61426 36.4678 6.68066V10.8027C36.4736 11.7051 36.5996 12.3877 36.8457 12.8506V13H34.2793ZM32.1787 11.2334C32.5537 11.2334 32.8994 11.1514 33.2158 10.9873C33.5322 10.8174 33.7666 10.5918 33.9189 10.3105V8.67578H32.9697C31.6982 8.67578 31.0215 9.11523 30.9395 9.99414L30.9307 10.1436C30.9307 10.46 31.042 10.7207 31.2646 10.9258C31.4873 11.1309 31.792 11.2334 32.1787 11.2334ZM43.7627 5.87207C43.417 5.8252 43.1123 5.80176 42.8486 5.80176C41.8877 5.80176 41.2578 6.12695 40.959 6.77734V13H38.4189V3.49023H40.8184L40.8887 4.62402C41.3984 3.75098 42.1045 3.31445 43.0068 3.31445C43.2881 3.31445 43.5518 3.35254 43.7979 3.42871L43.7627 5.87207ZM47.3311 3.49023L47.4102 4.58887C48.0898 3.73926 49.001 3.31445 50.1436 3.31445C51.1514 3.31445 51.9014 3.61035 52.3936 4.20215C52.8857 4.79395 53.1377 5.67871 53.1494 6.85645V13H50.6094V6.91797C50.6094 6.37891 50.4922 5.98926 50.2578 5.74902C50.0234 5.50293 49.6338 5.37988 49.0889 5.37988C48.374 5.37988 47.8379 5.68457 47.4805 6.29395V13H44.9404V3.49023H47.3311ZM61.9473 3.49023L62.0264 4.55371C62.7002 3.72754 63.6113 3.31445 64.7598 3.31445C65.9844 3.31445 66.8252 3.79785 67.2822 4.76465C67.9502 3.79785 68.9023 3.31445 70.1387 3.31445C71.1699 3.31445 71.9375 3.61621 72.4414 4.21973C72.9453 4.81738 73.1973 5.71973 73.1973 6.92676V13H70.6484V6.93555C70.6484 6.39648 70.543 6.00391 70.332 5.75781C70.1211 5.50586 69.749 5.37988 69.2158 5.37988C68.4541 5.37988 67.9268 5.74316 67.6338 6.46973L67.6426 13H65.1025V6.94434C65.1025 6.39355 64.9941 5.99512 64.7773 5.74902C64.5605 5.50293 64.1914 5.37988 63.6699 5.37988C62.9492 5.37988 62.4277 5.67871 62.1055 6.27637V13H59.5654V3.49023H61.9473ZM74.7617 8.15723C74.7617 7.21387 74.9434 6.37305 75.3066 5.63477C75.6699 4.89648 76.1914 4.3252 76.8711 3.9209C77.5566 3.5166 78.3506 3.31445 79.2529 3.31445C80.5361 3.31445 81.582 3.70703 82.3906 4.49219C83.2051 5.27734 83.6592 6.34375 83.7529 7.69141L83.7705 8.3418C83.7705 9.80078 83.3633 10.9727 82.5488 11.8574C81.7344 12.7363 80.6416 13.1758 79.2705 13.1758C77.8994 13.1758 76.8037 12.7363 75.9834 11.8574C75.1689 10.9785 74.7617 9.7832 74.7617 8.27148V8.15723ZM77.3018 8.3418C77.3018 9.24414 77.4717 9.93555 77.8115 10.416C78.1514 10.8906 78.6377 11.1279 79.2705 11.1279C79.8857 11.1279 80.3662 10.8936 80.7119 10.4248C81.0576 9.9502 81.2305 9.19434 81.2305 8.15723C81.2305 7.27246 81.0576 6.58691 80.7119 6.10059C80.3662 5.61426 79.8799 5.37109 79.2529 5.37109C78.6318 5.37109 78.1514 5.61426 77.8115 6.10059C77.4717 6.58105 77.3018 7.32812 77.3018 8.3418ZM90.6787 5.87207C90.333 5.8252 90.0283 5.80176 89.7646 5.80176C88.8037 5.80176 88.1738 6.12695 87.875 6.77734V13H85.335V3.49023H87.7344L87.8047 4.62402C88.3145 3.75098 89.0205 3.31445 89.9229 3.31445C90.2041 3.31445 90.4678 3.35254 90.7139 3.42871L90.6787 5.87207ZM96.1104 13.1758C94.7158 13.1758 93.5791 12.748 92.7002 11.8926C91.8271 11.0371 91.3906 9.89746 91.3906 8.47363V8.22754C91.3906 7.27246 91.5752 6.41992 91.9443 5.66992C92.3135 4.91406 92.835 4.33398 93.5088 3.92969C94.1885 3.51953 94.9619 3.31445 95.8291 3.31445C97.1299 3.31445 98.1523 3.72461 98.8965 4.54492C99.6465 5.36523 100.021 6.52832 100.021 8.03418V9.07129H93.9658C94.0479 9.69238 94.2939 10.1904 94.7041 10.5654C95.1201 10.9404 95.6445 11.1279 96.2773 11.1279C97.2559 11.1279 98.0205 10.7734 98.5713 10.0645L99.8193 11.4619C99.4385 12.001 98.9229 12.4229 98.2725 12.7275C97.6221 13.0264 96.9014 13.1758 96.1104 13.1758ZM95.8203 5.37109C95.3164 5.37109 94.9062 5.54102 94.5898 5.88086C94.2793 6.2207 94.0801 6.70703 93.9922 7.33984H97.5254V7.1377C97.5137 6.5752 97.3613 6.1416 97.0684 5.83691C96.7754 5.52637 96.3594 5.37109 95.8203 5.37109Z" fill="#293A96"/>
</svg>
