<svg width="175" height="44" viewBox="0 0 175 44" fill="none" xmlns="http://www.w3.org/2000/svg">
<path d="M10.5598 33.1693C10.4934 33.1693 10.3827 33.0339 10.2277 32.7631C10.0728 32.4698 9.87353 32.3231 9.63002 32.3231C9.40863 32.3231 9.15407 32.5036 8.86627 32.8646C8.60061 33.2257 8.39031 33.4062 8.23534 33.4062C6.75209 33.4062 5.42381 33.2821 4.25052 33.0339C3.07721 32.8082 2.28025 32.5713 1.85963 32.3231L1.19549 31.9508C1.06266 31.8154 0.907695 31.1159 0.730593 29.8523C0.575626 28.5662 0.498145 27.4041 0.498145 26.3662C0.498145 26.2082 0.940902 25.8359 1.82642 25.2492L2.25811 24.9446C2.47949 24.7867 3.03293 24.64 3.91845 24.5046C3.9406 24.5046 3.95166 24.5949 3.95166 24.7754L3.91845 25.52L4.78183 27.6862C4.8925 27.7539 5.27993 27.9118 5.94407 28.16C6.63035 28.3857 7.13951 28.4985 7.47158 28.4985C8.0693 28.4985 8.66703 28.1374 9.26475 27.4154C9.88462 26.6708 10.1945 26.1518 10.1945 25.8585C10.1945 25.3395 9.89568 24.6626 9.29796 23.8277L8.99909 23.3877C7.38302 22.3497 6.40896 21.8308 6.07689 21.8308C5.67841 21.9436 5.41276 22 5.27993 22C5.16925 22 5.00322 21.8646 4.78183 21.5939C4.58259 21.3231 4.48296 21.1426 4.48296 21.0523L4.71541 20.0369C4.71541 19.8564 4.48296 19.6985 4.01807 19.5631L3.08828 19.7323C2.84476 19.7323 2.29131 19.1682 1.42794 18.04C0.586698 16.9118 0.166077 16.2349 0.166077 16.0092C0.166077 15.7836 0.309973 15.2195 0.597765 14.3169C0.907695 13.4144 1.37259 12.3426 1.99245 11.1016C2.61231 9.83797 3.26538 8.85644 3.95166 8.15694C4.41655 7.84105 5.21352 7.55898 6.34255 7.31078C7.49373 7.06259 8.71129 6.93848 9.9953 6.93848C10.3716 7.54771 10.8365 7.85232 11.39 7.85232C11.877 7.62667 12.1205 7.23182 12.1205 6.66771C12.1205 6.60001 12.4858 6.56617 13.2164 6.56617C14.6775 6.56617 15.408 6.75797 15.408 7.14155C15.4302 7.52513 15.4412 8.04413 15.4412 8.69848C15.4412 9.35282 15.4191 9.86052 15.3748 10.2216C15.6183 11.3046 15.7401 11.9477 15.7401 12.1508V12.1846C15.6073 12.4554 15.242 12.7939 14.6443 13.2C14.0465 13.5836 13.6702 13.7754 13.5152 13.7754C13.3824 13.7754 13.316 13.7416 13.316 13.6739C13.316 13.2677 12.8843 12.7262 12.0209 12.0492C11.1797 11.3497 10.4048 11 9.69644 11C9.27581 11 8.72238 11.3723 8.0361 12.1169C7.34981 12.839 7.00668 13.4482 7.00668 13.9446C7.11736 14.5087 7.34981 14.7908 7.70403 14.7908C7.90327 14.7908 8.13572 14.6667 8.40137 14.4185H8.43458C8.63382 14.4185 9.2869 14.8134 10.3938 15.6031C11.5228 16.3703 12.1205 16.8554 12.187 17.0585C12.4526 17.0134 12.674 16.9908 12.8511 16.9908C13.0503 16.9908 13.1942 17.0134 13.2828 17.0585C13.8141 17.4872 14.3675 18.0739 14.9431 18.8185C15.5187 19.5405 15.8508 20.0144 15.9393 20.24C16.4485 21.4359 16.7031 23.3651 16.7031 26.0277C16.7031 26.84 15.8508 28.239 14.1462 30.2246C12.4637 32.1877 11.2682 33.1693 10.5598 33.1693ZM32.1009 24.4031L31.9349 28.7354C31.9349 29.8185 32.0234 30.5857 32.2005 31.0369C32.7318 32.1426 32.9975 32.7405 32.9975 32.8308C32.9975 32.9211 32.8204 33.0451 32.4662 33.2031C32.1341 33.3611 31.9681 33.5416 31.9681 33.7446C31.9681 33.9704 31.3372 34.0831 30.0753 34.0831C28.8356 34.0831 28.1715 34.0042 28.0829 33.8462C28.0165 33.7108 27.6291 33.3949 26.9207 32.8985C26.2344 32.4021 25.8912 32.0523 25.8912 31.8492V31.8154L26.0241 29.2769C26.0241 29.0964 26.3119 28.7805 26.8874 28.3293C26.9539 28.2616 26.9871 28.1262 26.9871 27.9231V27.7539C26.9871 27.6636 26.8321 27.5395 26.5222 27.3816C26.2344 27.2236 26.0905 27.0769 26.0905 26.9416C26.0905 26.7836 26.1569 26.3887 26.2897 25.7569C26.4226 25.1026 26.489 24.5385 26.489 24.0646C26.489 23.5682 26.3561 23.0718 26.0905 22.5754C26.0905 22.3046 26.3008 21.8759 26.7214 21.2892C27.142 20.7026 27.3523 20.3867 27.3523 20.3416C27.3523 20.2062 27.1088 20.0482 26.6218 19.8677C26.3119 19.8677 25.9466 20.1159 25.526 20.6123C25.1054 21.0862 24.7622 21.5713 24.4966 22.0677L24.0981 22.7785C23.9874 23.2298 23.932 23.8616 23.932 24.6739L24.1313 28.4308C24.1313 28.4759 24.0206 28.6113 23.7992 28.8369C23.5779 29.0626 23.4671 29.2205 23.4671 29.3108C23.4671 29.4011 23.4893 29.4687 23.5336 29.5139C23.7771 29.7621 23.8988 30.3713 23.8988 31.3416V31.5785C23.8988 31.9169 23.445 32.2892 22.5374 32.6954C21.6519 33.1016 21.187 33.3272 21.1427 33.3723C21.0984 33.4174 20.866 33.44 20.4453 33.44L18.3865 33.3385C18.1651 33.3385 17.9327 33.2144 17.6892 32.9662C17.6892 32.6954 17.8552 32.0411 18.1873 31.0031L18.3533 30.4616C18.3976 30.2811 18.4197 29.9651 18.4197 29.5139L18.3201 25.1139C18.3201 24.5723 18.3312 24.279 18.3533 24.2339C18.3976 24.1887 18.5304 24.0985 18.7518 23.9631C19.1724 23.7149 19.3827 23.4893 19.3827 23.2862L19.1835 22.7446C19.1171 22.5867 18.8514 22.4174 18.3865 22.2369L18.5857 18.0062L18.1541 14.3846L18.5193 13.9108C18.5415 13.8882 18.5525 13.798 18.5525 13.64L18.4529 11.88L18.5193 11.2031C18.5193 10.9097 18.4197 10.3231 18.2205 9.44309C18.0212 8.56309 17.9216 8.11182 17.9216 8.08925C17.9216 7.90874 18.3533 7.51386 19.2167 6.90463C20.08 6.2954 20.6889 5.99078 21.043 5.99078C21.3973 5.99078 22.0282 6.05848 22.9358 6.19386C23.8656 6.30667 24.3305 6.44205 24.3305 6.60001L23.9985 9.8154V10.0185C23.5557 10.4246 23.3343 10.6841 23.3343 10.7969C23.3343 10.9097 23.3786 11.0113 23.4671 11.1016C23.5557 11.1918 23.6553 11.2708 23.766 11.3385C24.0538 11.519 24.1977 11.6205 24.1977 11.6431C24.0649 12.0041 23.932 12.6134 23.7992 13.4708C23.6664 14.3282 23.6 14.8585 23.6 15.0616V17.7016C23.7992 17.8595 23.9542 17.9385 24.0649 17.9385C24.5076 17.9385 24.9393 17.1939 25.3599 15.7046C26.5554 15.2082 27.3856 14.96 27.8504 14.96C29.0459 15.1631 29.7986 15.3436 30.1085 15.5016C30.4185 15.6369 30.8612 16.0544 31.4368 16.7539C32.0345 17.4308 32.3334 17.9272 32.3334 18.2431V19.0216C32.3334 20.5785 32.3666 21.4923 32.433 21.7631V21.7969C32.433 21.8421 32.3002 21.8985 32.0345 21.9662C31.7689 22.0339 31.6139 22.0903 31.5696 22.1354C31.2154 22.6544 31.0383 22.9928 31.0383 23.1508C31.0383 23.3764 31.3593 23.5118 32.0013 23.5569C32.0677 23.6246 32.1009 23.9067 32.1009 24.4031ZM41.6129 25.6892L41.7125 23.9969C41.7125 23.839 41.6902 23.76 41.6461 23.76C41.3582 23.76 40.8601 23.9405 40.1518 24.3016C39.4654 24.6626 39.1223 24.9785 39.1223 25.2492C39.2993 25.5426 39.388 25.7795 39.388 25.96C39.388 26.118 39.3548 26.2308 39.2884 26.2985C39.0227 26.4113 38.8899 26.5918 38.8899 26.84C38.8899 27.0657 39.0337 27.3364 39.3216 27.6523C39.6314 27.9457 39.8861 28.0923 40.0853 28.0923C40.2846 28.0923 40.6276 27.9005 41.1147 27.5169C41.6019 27.1108 41.8453 26.8174 41.8453 26.6369L41.8121 26.5693C41.6793 26.4339 41.6129 26.1405 41.6129 25.6892ZM47.0588 24.2339L47.2248 26.8062C47.2248 27.0092 47.2026 27.1108 47.1584 27.1108C46.4278 27.5621 46.0626 28.0923 46.0626 28.7016C46.0626 28.8821 46.2286 29.04 46.5607 29.1754L47.0588 29.3785L47.3244 31.1723L47.9221 32.2892C47.9221 32.3344 47.8225 32.4246 47.6233 32.56C47.0478 32.9887 46.6048 33.2031 46.295 33.2031C45.786 33.2031 45.2102 33.3949 44.5683 33.7785L44.2694 33.9477H44.203C43.8487 33.9477 43.1404 33.7446 42.0777 33.3385L41.5464 33.1354C41.5023 33.0903 41.48 32.9888 41.48 32.8308L41.5796 31.24V31.1046L41.148 30.9693C41.0815 30.9693 40.9597 31.0934 40.7827 31.3416C40.4948 31.7251 39.7974 32.2892 38.6907 33.0339L38.1261 33.4062C37.4842 33.4062 36.842 33.2031 36.2001 32.7969C35.5802 32.3908 35.1043 32.0072 34.7722 31.6462C34.4402 31.2626 34.2741 31.0482 34.2741 31.0031C34.2741 30.958 34.3183 30.9016 34.407 30.8339C34.6285 30.6308 34.739 30.4164 34.739 30.1908C34.739 29.7846 34.3406 29.48 33.5436 29.2769L33.1784 29.1754C33.1784 28.16 33.267 27.1785 33.444 26.2308C33.6432 25.2831 33.8315 24.5949 34.0085 24.1662L34.3074 23.4892C34.573 23.1282 35.4141 22.5641 36.8311 21.7969C38.248 21.0297 39.399 20.6462 40.2846 20.6462C40.351 20.6462 40.4616 20.7251 40.6166 20.8831C40.7936 21.0185 40.9378 21.0862 41.0483 21.0862C41.1812 21.0862 41.3362 21.0297 41.5132 20.9169C41.8895 20.7139 42.0777 20.5446 42.0777 20.4092C42.0777 20.0708 41.9227 19.6308 41.6129 19.0892C41.3694 18.8411 40.5834 18.6492 39.2552 18.5139L38.591 18.4462C38.1484 18.4462 37.5284 18.6154 36.7314 18.9539C35.9345 19.2697 35.5138 19.4277 35.4696 19.4277C35.4254 19.4277 35.3145 19.2923 35.1375 19.0216C34.9605 18.7508 34.8719 18.559 34.8719 18.4462C34.8719 18.3108 35.0711 17.8482 35.4696 17.0585C35.8903 16.2462 36.1779 15.7836 36.333 15.6708C36.5986 15.5128 37.4178 15.2421 38.7903 14.8585C40.1627 14.4749 41.148 14.2831 41.7457 14.2831C42.7196 14.9374 43.5721 15.3549 44.3026 15.5354C45.0554 15.6934 45.7747 16.0318 46.4611 16.5508C47.1474 17.0472 47.4905 17.5436 47.4905 18.04C47.4905 18.0851 47.3799 18.3221 47.1584 18.7508C46.9592 19.1795 46.8595 19.5292 46.8595 19.8C46.8595 20.0708 46.915 20.3077 47.0256 20.5108L47.2248 20.8154C47.2248 21.9436 47.1916 22.5867 47.1252 22.7446C46.8818 23.2411 46.7599 23.5118 46.7599 23.5569L47.0588 24.0308V24.2339ZM52.5399 13.64L53.5361 13.7416C53.7353 13.7416 53.9346 13.7077 54.1338 13.64C54.5101 14.1139 54.6983 14.4411 54.6983 14.6216C54.4768 15.4339 54.3663 16.3816 54.3663 17.4646C54.4327 17.8708 54.6097 18.0739 54.8976 18.0739C56.4693 15.7046 57.4877 14.52 57.9526 14.52C59.0594 14.5877 59.9892 15.0164 60.742 15.8062C61.0296 16.7087 61.1737 17.6226 61.1737 18.5477C61.0628 20.1046 60.9412 20.9395 60.8084 21.0523C60.4318 21.1651 60.1662 21.2216 60.0114 21.2216H59.945C59.1481 20.68 58.4949 20.4092 57.9858 20.4092C57.4764 20.4092 56.7572 20.838 55.8274 21.6954C54.8976 22.5528 54.4327 23.1508 54.4327 23.4892C54.4546 24.0759 54.5765 24.3692 54.798 24.3692C54.975 24.3016 55.1519 24.2677 55.3293 24.2677C55.5063 24.2677 55.5949 24.3354 55.5949 24.4708C55.484 26.0051 55.4289 27.2123 55.4289 28.0923C55.4289 28.9498 55.4621 29.4574 55.5285 29.6154C55.3734 29.999 55.2961 30.2585 55.2961 30.3939C55.2961 30.5293 55.3957 30.8339 55.5949 31.3077C55.8161 31.7816 55.927 32.0862 55.927 32.2216C55.927 32.4246 55.3957 32.8082 54.3331 33.3723C53.2924 33.9365 52.5731 34.2185 52.1746 34.2185C51.798 34.2185 51.1452 34.1735 50.2154 34.0831C49.2856 34.0154 48.8207 33.8912 48.8207 33.7108C48.8207 33.6657 48.8871 33.2708 49.02 32.5262C49.1747 31.7816 49.2524 31.0934 49.2524 30.4616L49.6177 30.2246C49.8611 30.0667 49.983 29.8523 49.983 29.5816C49.983 29.2882 49.6841 28.9723 49.0864 28.6339C49.197 28.16 49.3075 26.7498 49.4185 24.4031L49.4517 23.2862L48.9536 21.0185C48.9536 20.9959 49.0309 20.9169 49.186 20.7816C49.3407 20.6236 49.4185 20.398 49.4185 20.1046C49.4185 19.8113 49.2743 19.1569 48.9868 18.1416C48.6989 17.1262 48.5551 16.4831 48.5551 16.2123C48.5551 15.9416 48.5883 15.7836 48.6547 15.7385C48.7211 15.6934 48.8539 15.6257 49.0532 15.5354C49.2524 15.4226 49.4184 15.3211 49.5513 15.2308C49.6841 15.1405 49.8833 14.9939 50.149 14.7908C50.4366 14.5651 50.6803 14.3734 50.8796 14.2154C51.455 13.8318 52.0086 13.64 52.5399 13.64ZM69.133 19.6646C69.0889 19.6195 69.0666 19.4728 69.0666 19.2246C69.0666 18.9539 69.1662 18.559 69.3655 18.04C69.3655 17.8595 69.2104 17.7692 68.9006 17.7692L68.3693 17.8369C67.993 18.0174 67.6387 18.5026 67.3066 19.2923C67.3731 19.7211 67.4063 20.1497 67.4063 20.5785C67.4063 20.9846 67.3508 21.2441 67.2402 21.3569C67.2625 21.4697 67.2957 21.6051 67.3398 21.7631C67.4063 21.9211 67.5945 22.1354 67.9044 22.4062C68.2142 22.6769 68.6127 22.8123 69.0998 22.8123C69.2549 22.8123 69.3432 22.6657 69.3655 22.3723C69.3877 22.079 69.4096 21.7405 69.4319 21.3569C69.4541 20.9734 69.5092 20.7364 69.5979 20.6462C69.7085 20.5334 69.7639 20.4318 69.7639 20.3416C69.7639 20.1385 69.5537 19.9128 69.133 19.6646ZM74.7782 27.6185L75.0438 30.2585C75.0438 30.3939 75.0106 30.5292 74.9442 30.6646C74.9 30.8 74.6563 31.1159 74.2137 31.6123C73.7929 32.1087 73.5495 32.4585 73.4831 32.6616C73.4389 32.8421 73.0514 33.0677 72.3209 33.3385C71.6126 33.6318 71.1364 33.7785 70.893 33.7785C70.6715 33.7785 70.5387 33.7559 70.4945 33.7108C70.4722 33.6657 70.4171 33.5416 70.3285 33.3385C70.1515 32.8195 69.9632 32.56 69.7639 32.56C69.4983 32.56 69.2217 32.7292 68.9338 33.0677C68.6681 33.4062 68.5243 33.5754 68.5021 33.5754C67.218 33.5754 66.0338 33.3498 64.949 32.8985C64.5505 32.7405 64.3512 32.6051 64.3512 32.4923C64.3512 32.2216 63.7093 31.5108 62.4252 30.36L61.7611 29.7846C61.5841 29.6267 61.44 28.9046 61.3294 27.6185C61.2407 26.3323 61.1966 25.2718 61.1966 24.4369C61.1966 23.5795 61.2075 23.1395 61.2298 23.1169C61.252 23.0944 61.3958 23.0154 61.6615 22.88C61.9271 22.7221 62.1041 22.598 62.1928 22.5077C62.2814 22.4174 62.3256 22.2934 62.3256 22.1354L62.2592 21.7292C61.8166 21.278 61.5951 21.0411 61.5951 21.0185C61.5951 20.8154 61.8385 20.1836 62.3256 19.1231C62.8128 18.04 63.2332 17.318 63.5875 16.9569C66.2218 15.4 68.1146 14.6216 69.2658 14.6216C71.6126 14.6441 72.9296 14.8021 73.2175 15.0954C74.2578 16.5621 74.7782 17.9611 74.7782 19.2923C74.2469 19.5405 73.9038 19.7323 73.7488 19.8677C73.6159 20.0031 73.5495 20.2174 73.5495 20.5108C73.5495 20.8041 73.6824 20.9508 73.948 20.9508L74.6786 20.8154C74.745 20.8154 74.7782 20.838 74.7782 20.8831C74.7782 22.7108 74.2578 24.1549 73.2175 25.2154C72.9296 25.5087 72.199 25.7908 71.0258 26.0616C69.8745 26.3098 69.144 26.4339 68.8342 26.4339C68.7455 26.4339 68.5021 26.2534 68.1036 25.8923C67.7051 25.5313 67.4836 25.3508 67.4395 25.3508C67.4172 25.3508 67.3066 25.4636 67.1074 25.6892C66.9082 25.9149 66.8085 26.1067 66.8085 26.2646C67.1628 27.3477 67.5833 28.1374 68.0704 28.6339C68.2474 28.8144 68.6459 28.9046 69.2658 28.9046C71.1254 28.9046 72.4979 28.4534 73.3835 27.5508C73.6491 27.1898 73.8261 27.0093 73.9148 27.0093C74.0254 27.0093 74.1914 27.0657 74.4129 27.1785C74.6563 27.2687 74.7782 27.359 74.7782 27.4492V27.6185ZM91.266 24.9446C90.2921 25.5087 89.8049 25.9487 89.8049 26.2646C89.8049 26.4226 89.9378 26.6144 90.2034 26.84C90.4913 27.0657 90.6351 27.2011 90.6351 27.2462C90.1038 29.8636 89.8381 31.4431 89.8381 31.9846C89.8381 32.1426 89.617 32.2893 89.174 32.4246C88.7314 32.5374 88.4989 32.5939 88.4767 32.5939C87.5027 33.1128 86.5507 33.5303 85.6209 33.8462L85.1228 34.0154C85.0122 34.0381 84.7797 34.0492 84.4254 34.0492C83.6507 34.0492 82.5658 33.88 81.1712 33.5416L80.4738 33.3723C80.2968 33.1918 80.0753 31.7703 79.8097 29.1077L79.6768 27.7539C79.6549 27.6636 79.5553 27.5057 79.378 27.28C79.201 27.0544 79.1123 26.8513 79.1123 26.6708C79.1123 26.6482 79.2564 26.5016 79.544 26.2308C79.8319 25.96 79.9757 25.7344 79.9757 25.5539C79.9757 25.3508 79.7546 25.1026 79.3116 24.8092C78.8912 24.4934 78.6806 24.3241 78.6806 24.3016C78.6806 24.0534 78.4263 22.4851 77.9169 19.5969C77.4078 16.7087 77.0535 15.1518 76.8543 14.9262V14.8923L77.2528 13.9785C77.2528 13.7303 76.9761 12.9067 76.4226 11.5077C75.8694 10.1087 75.5924 9.38667 75.5924 9.34155C75.5924 9.20617 76.1792 8.83386 77.3524 8.22463C78.5259 7.59282 79.3448 7.27694 79.8097 7.27694C80.0753 7.48001 80.3964 7.58155 80.7727 7.58155C81.1712 7.58155 81.4368 7.57028 81.5696 7.54771H81.6693C81.913 7.54771 82.267 7.67182 82.7319 7.92001C83.219 8.14567 83.4624 8.3149 83.4624 8.42771C83.4405 9.12721 83.4292 9.84925 83.4292 10.5939C83.4292 11.3159 83.4515 11.7446 83.4956 11.88C82.8315 12.1734 82.4994 12.6359 82.4994 13.2677C82.4994 13.4031 82.6987 13.5272 83.0972 13.64C83.4956 13.7303 83.6949 13.798 83.6949 13.8431C83.85 17.1826 83.9828 18.9313 84.0934 19.0892C84.2043 19.2472 84.3813 19.4277 84.6247 19.6308C84.8903 19.8339 85.0231 19.9805 85.0231 20.0708C85.0231 20.3867 84.9126 20.7251 84.6911 21.0862C84.4699 21.4472 84.359 21.7067 84.359 21.8646C84.6247 23.4667 84.7575 24.4595 84.7575 24.8431C85.0676 24.9785 85.2778 25.0462 85.3884 25.0462C85.4993 25.0462 85.6322 24.9446 85.7869 24.7416C85.9642 24.5385 86.0971 24.3241 86.1854 24.0985C86.451 21.0297 86.6393 19.4616 86.7499 19.3939C87.3921 18.9426 87.7129 18.559 87.7129 18.2431C87.7129 18.1754 87.6797 18.1077 87.6133 18.04C86.9491 17.5662 86.6171 17.0811 86.6171 16.5846C86.6171 16.5621 86.7499 16.3928 87.0156 16.0769C87.3035 15.7385 87.4473 15.4451 87.4473 15.1969L87.7461 10.0523C87.7461 9.69129 87.7242 9.42052 87.6797 9.24001V9.20617C87.6797 9.00309 88.1227 8.60821 89.008 8.02155C89.9158 7.41232 90.5136 7.10771 90.8011 7.10771C90.8456 7.10771 90.9453 7.15282 91.1 7.24309C91.2773 7.31078 91.5649 7.34463 91.9634 7.34463C92.3619 7.34463 92.6388 7.33336 92.7935 7.31078C94.3656 7.33336 95.1512 7.50259 95.1512 7.81848V7.88617C94.155 10.5036 93.635 12.0267 93.5905 12.4554C92.7716 12.7713 92.3619 13.1323 92.3619 13.5385C92.3619 13.6739 92.506 13.8205 92.7935 13.9785C93.1037 14.1364 93.2584 14.2267 93.2584 14.2492C91.9302 19.4841 91.266 23.0492 91.266 24.9446ZM96.5718 10.2554L96.8375 8.39386C96.8375 8.28105 96.8152 8.08925 96.7711 7.81848V7.78463C96.7711 7.64925 96.9039 7.45744 97.1695 7.20924C97.4352 6.93848 97.8778 6.67898 98.4978 6.43078C99.1397 6.16001 99.848 6.02463 100.623 6.02463C101.309 6.16001 101.652 6.30667 101.652 6.46463V6.49848C101.542 6.94975 101.486 7.3559 101.486 7.71694C101.486 8.07797 101.52 8.29232 101.586 8.36001C101.652 8.42771 101.785 8.4954 101.985 8.56309C102.184 8.63078 102.305 8.68721 102.35 8.73232C102.416 9.02567 102.449 9.33028 102.449 9.64617C102.449 9.93951 102.416 10.1877 102.35 10.3908C102.283 10.5939 101.973 10.9662 101.42 11.5077C100.889 12.0492 100.534 12.32 100.357 12.32C99.6488 12.32 98.9846 12.1734 98.365 11.88C97.745 11.5867 97.2911 11.2934 97.0035 11C96.7156 10.6841 96.5718 10.4359 96.5718 10.2554ZM102.084 23.1846L101.918 28.6677C101.918 29.7282 101.973 30.3826 102.084 30.6308C102.527 31.6236 102.748 32.2216 102.748 32.4246C102.748 32.6277 102.737 32.7405 102.715 32.7631C102.693 32.7857 102.438 32.8759 101.951 33.0339C100.379 33.598 99.505 33.9139 99.328 33.9816C99.1507 34.0719 98.9073 34.1169 98.5974 34.1169C98.3095 34.1169 97.7892 33.9589 97.0367 33.6431C96.2839 33.3272 95.9077 33.079 95.9077 32.8985L96.3726 28.8031C96.3726 28.7354 96.5164 28.6226 96.8043 28.4646C97.0918 28.3067 97.236 28.1487 97.236 27.9908C97.236 27.8328 97.0809 27.6411 96.7711 27.4154C96.4832 27.1898 96.3394 27.0544 96.3394 27.0093V26.9754C96.4722 26.4564 96.5386 25.7344 96.5386 24.8092L96.3062 20.7816C96.3062 20.7364 96.3835 20.6236 96.5386 20.4431C96.6934 20.2626 96.7711 20.0031 96.7711 19.6646C96.7711 19.3262 96.6382 18.8185 96.3726 18.1416C96.1288 17.4421 96.0073 17.0021 96.0073 16.8216C96.0073 16.6862 96.5054 16.3026 97.5016 15.6708C98.4978 15.039 99.1952 14.7231 99.5936 14.7231C101.652 14.8134 102.682 14.9713 102.682 15.1969C102.682 15.6257 102.549 16.4041 102.283 17.5323C102.04 18.638 101.918 19.3939 101.918 19.8C101.918 20.1836 101.94 20.5559 101.985 20.9169C101.387 21.3005 101.088 21.7405 101.088 22.2369C101.354 22.4851 101.663 22.6092 102.018 22.6092C102.062 22.6092 102.084 22.8011 102.084 23.1846ZM107.83 13.64L108.826 13.7416C109.026 13.7416 109.225 13.7077 109.424 13.64C109.801 14.1139 109.989 14.4411 109.989 14.6216C109.768 15.4339 109.657 16.3816 109.657 17.4646C109.723 17.8708 109.9 18.0739 110.188 18.0739C111.76 15.7046 112.778 14.52 113.243 14.52C114.35 14.5877 115.28 15.0164 116.032 15.8062C116.32 16.7087 116.464 17.6226 116.464 18.5477C116.353 20.1046 116.232 20.9395 116.099 21.0523C115.723 21.1651 115.457 21.2216 115.302 21.2216H115.235C114.438 20.68 113.786 20.4092 113.276 20.4092C112.767 20.4092 112.048 20.838 111.118 21.6954C110.188 22.5528 109.723 23.1508 109.723 23.4892C109.745 24.0759 109.867 24.3692 110.088 24.3692C110.266 24.3016 110.443 24.2677 110.62 24.2677C110.797 24.2677 110.885 24.3354 110.885 24.4708C110.775 26.0051 110.719 27.2123 110.719 28.0923C110.719 28.9498 110.752 29.4574 110.819 29.6154C110.664 29.999 110.586 30.2585 110.586 30.3939C110.586 30.5293 110.686 30.8339 110.885 31.3077C111.107 31.7816 111.217 32.0862 111.217 32.2216C111.217 32.4246 110.686 32.8082 109.623 33.3723C108.583 33.9365 107.863 34.2185 107.465 34.2185C107.089 34.2185 106.436 34.1735 105.506 34.0831C104.576 34.0154 104.111 33.8912 104.111 33.7108C104.111 33.6657 104.178 33.2708 104.31 32.5262C104.465 31.7816 104.543 31.0934 104.543 30.4616L104.908 30.2246C105.152 30.0667 105.273 29.8523 105.273 29.5816C105.273 29.2882 104.974 28.9723 104.377 28.6339C104.488 28.16 104.598 26.7498 104.709 24.4031L104.742 23.2862L104.244 21.0185C104.244 20.9959 104.322 20.9169 104.476 20.7816C104.631 20.6236 104.709 20.398 104.709 20.1046C104.709 19.8113 104.565 19.1569 104.277 18.1416C103.99 17.1262 103.845 16.4831 103.845 16.2123C103.845 15.9416 103.879 15.7836 103.945 15.7385C104.011 15.6934 104.144 15.6257 104.344 15.5354C104.543 15.4226 104.709 15.3211 104.842 15.2308C104.974 15.1405 105.174 14.9939 105.439 14.7908C105.727 14.5651 105.971 14.3734 106.17 14.2154C106.746 13.8318 107.299 13.64 107.83 13.64ZM124.046 25.6892L124.146 23.9969C124.146 23.839 124.124 23.76 124.079 23.76C123.792 23.76 123.294 23.9405 122.585 24.3016C121.899 24.6626 121.556 24.9785 121.556 25.2492C121.733 25.5426 121.821 25.7795 121.821 25.96C121.821 26.118 121.788 26.2308 121.722 26.2985C121.456 26.4113 121.323 26.5918 121.323 26.84C121.323 27.0657 121.467 27.3364 121.755 27.6523C122.065 27.9457 122.319 28.0923 122.519 28.0923C122.718 28.0923 123.061 27.9005 123.548 27.5169C124.035 27.1108 124.279 26.8174 124.279 26.6369L124.245 26.5693C124.113 26.4339 124.046 26.1405 124.046 25.6892ZM129.492 24.2339L129.658 26.8062C129.658 27.0092 129.636 27.1108 129.592 27.1108C128.861 27.5621 128.496 28.0923 128.496 28.7016C128.496 28.8821 128.662 29.04 128.994 29.1754L129.492 29.3785L129.758 31.1723L130.355 32.2892C130.355 32.3344 130.256 32.4246 130.057 32.56C129.481 32.9887 129.038 33.2031 128.728 33.2031C128.219 33.2031 127.644 33.3949 127.002 33.7785L126.703 33.9477H126.636C126.282 33.9477 125.574 33.7446 124.511 33.3385L123.98 33.1354C123.936 33.0903 123.913 32.9888 123.913 32.8308L124.013 31.24V31.1046L123.581 30.9693C123.515 30.9693 123.393 31.0934 123.216 31.3416C122.928 31.7251 122.231 32.2892 121.124 33.0339L120.559 33.4062C119.918 33.4062 119.276 33.2031 118.633 32.7969C118.014 32.3908 117.538 32.0072 117.206 31.6462C116.873 31.2626 116.707 31.0482 116.707 31.0031C116.707 30.958 116.752 30.9016 116.84 30.8339C117.062 30.6308 117.172 30.4164 117.172 30.1908C117.172 29.7846 116.774 29.48 115.977 29.2769L115.612 29.1754C115.612 28.16 115.7 27.1785 115.877 26.2308C116.077 25.2831 116.265 24.5949 116.442 24.1662L116.741 23.4892C117.006 23.1282 117.848 22.5641 119.264 21.7969C120.681 21.0297 121.833 20.6462 122.718 20.6462C122.784 20.6462 122.895 20.7251 123.05 20.8831C123.227 21.0185 123.371 21.0862 123.482 21.0862C123.614 21.0862 123.77 21.0297 123.947 20.9169C124.323 20.7139 124.511 20.5446 124.511 20.4092C124.511 20.0708 124.356 19.6308 124.046 19.0892C123.803 18.8411 123.017 18.6492 121.688 18.5139L121.024 18.4462C120.582 18.4462 119.962 18.6154 119.165 18.9539C118.368 19.2697 117.947 19.4277 117.903 19.4277C117.859 19.4277 117.748 19.2923 117.571 19.0216C117.394 18.7508 117.305 18.559 117.305 18.4462C117.305 18.3108 117.504 17.8482 117.903 17.0585C118.324 16.2462 118.612 15.7836 118.766 15.6708C119.032 15.5128 119.851 15.2421 121.224 14.8585C122.596 14.4749 123.581 14.2831 124.179 14.2831C125.153 14.9374 126.005 15.3549 126.736 15.5354C127.489 15.6934 128.208 16.0318 128.894 16.5508C129.581 17.0472 129.924 17.5436 129.924 18.04C129.924 18.0851 129.813 18.3221 129.592 18.7508C129.392 19.1795 129.293 19.5292 129.293 19.8C129.293 20.0708 129.348 20.3077 129.459 20.5108L129.658 20.8154C129.658 21.9436 129.625 22.5867 129.558 22.7446C129.315 23.2411 129.193 23.5118 129.193 23.5569L129.492 24.0308V24.2339ZM137.531 16.72L137.233 20.7816C137.233 22.2257 137.288 23.8164 137.399 25.5539C137.531 27.2913 137.598 28.2051 137.598 28.2954C137.598 28.3631 137.51 28.4985 137.332 28.7016C137.177 28.9046 137.1 29.1077 137.1 29.3108C137.1 29.4913 137.332 29.9877 137.797 30.8C138.284 31.6123 138.528 32.1651 138.528 32.4585C138.528 32.5036 138.406 32.5826 138.162 32.6954C137.476 32.9887 137.089 33.2144 137 33.3723C136.823 33.6657 136.347 33.8912 135.572 34.0492L135.174 34.1508C134.731 34.1508 133.967 33.9927 132.882 33.6769C131.798 33.3836 131.255 33.1805 131.255 33.0677L131.488 30.8C131.488 30.7774 131.543 30.6872 131.654 30.5293C131.942 30.0554 132.086 29.6718 132.086 29.3785C132.086 29.3559 131.986 29.1754 131.787 28.8369C131.587 28.4985 131.488 28.2503 131.488 28.0923C131.488 27.9118 131.499 27.799 131.521 27.7539C131.566 27.7087 131.676 27.6523 131.853 27.5846C132.052 27.4944 132.174 27.4267 132.218 27.3816C132.396 27.0205 132.484 26.7723 132.484 26.6369C132.484 26.4339 132.097 26.1744 131.322 25.8585C131.388 25.5877 131.421 25.1251 131.421 24.4708L131.355 22.6431C131.355 22.5528 131.488 22.3949 131.753 22.1692C131.776 22.1467 131.787 21.8308 131.787 21.2216L131.654 14.96C131.654 14.8697 131.798 14.7118 132.086 14.4862C132.373 14.238 132.517 13.9559 132.517 13.64C132.517 13.4821 132.351 13.3467 132.019 13.2339C131.709 13.1211 131.554 13.0421 131.554 12.9969C131.554 11.6882 131.499 10.6164 131.388 9.78155C131.278 8.94667 131.222 8.48413 131.222 8.39386C131.222 8.28105 131.267 8.17951 131.355 8.08925C131.466 7.97644 132.041 7.66052 133.082 7.14155C134.122 6.62259 134.875 6.36309 135.34 6.36309C135.827 6.36309 136.402 6.41951 137.067 6.53232C137.731 6.62259 138.063 6.7354 138.063 6.87078L137.332 9.07078L137.299 9.57848L137.531 14.3169C137.531 14.5877 137.52 14.7344 137.498 14.7569C136.879 15.2759 136.568 15.6821 136.568 15.9754C136.568 16.2687 136.724 16.4605 137.033 16.5508C137.365 16.6411 137.531 16.6974 137.531 16.72Z" fill="#293A96"/>
<path d="M155.817 22.8718L161.621 28.7874L170.927 0.535461L155.817 22.8718Z" fill="#FBB540"/>
<path d="M165.634 16.6055C164.536 17.4555 163.307 18.2269 161.968 18.8859C160.451 19.6324 158.913 20.1752 157.406 20.5238L155.817 22.8718L161.621 28.7874L165.634 16.6055Z" fill="#FBB540" fill-opacity="0.72"/>
<path d="M149.013 15.9363L143.209 10.0208L170.927 0.535461L149.013 15.9363Z" fill="#FBB540"/>
<path d="M149.413 22.4638L149.013 15.9363L170.928 0.535461L149.413 22.4638Z" fill="#FBB540" fill-opacity="0.72"/>
<path d="M149.413 22.4638L170.927 0.535461L155.817 22.8718L149.413 22.4638Z" fill="#EA9D2D"/>
<path d="M147.64 28.4873H146.744C146.454 28.4873 146.219 28.727 146.219 29.0228C146.219 29.3185 146.454 29.5582 146.744 29.5582H147.64C147.93 29.5582 148.165 29.3185 148.165 29.0228C148.165 28.727 147.93 28.4873 147.64 28.4873Z" fill="#FBB540"/>
<path d="M152.182 30.3675C151.904 30.2827 151.611 30.4428 151.527 30.7261C151.486 30.8668 151.409 30.9947 151.3 31.1063L151.162 31.2466C150.957 31.4558 150.957 31.7947 151.162 32.0038C151.265 32.1084 151.399 32.1606 151.534 32.1606C151.668 32.1606 151.803 32.1084 151.905 32.0038L152.043 31.8636C152.277 31.6255 152.442 31.3464 152.534 31.0344C152.617 30.7513 152.46 30.4527 152.182 30.3675Z" fill="#FBB540"/>
<path d="M145.404 26.4217C145.15 26.2782 144.83 26.3715 144.689 26.6301C144.534 26.9163 144.451 27.2413 144.451 27.57C144.451 27.6621 144.458 27.7553 144.47 27.8468C144.507 28.1142 144.732 28.3074 144.99 28.3074C145.015 28.3074 145.039 28.3057 145.064 28.3021C145.351 28.2607 145.551 27.9898 145.511 27.697C145.505 27.6549 145.502 27.6122 145.502 27.57C145.502 27.4206 145.538 27.2792 145.608 27.1497C145.749 26.8912 145.657 26.5652 145.404 26.4217Z" fill="#FBB540"/>
<path d="M146.794 25.6684C146.929 25.6684 147.063 25.6162 147.166 25.5117L147.799 24.8663C148.005 24.6571 148.005 24.3181 147.799 24.109C147.594 23.9 147.261 23.9 147.056 24.109L146.423 24.7544C146.218 24.9636 146.218 25.3025 146.423 25.5117C146.526 25.6161 146.66 25.6684 146.794 25.6684Z" fill="#FBB540"/>
<path d="M151.439 29.1344C151.488 28.8429 151.296 28.5661 151.01 28.5164C150.899 28.4971 150.785 28.4874 150.671 28.4874H150.027C149.737 28.4874 149.502 28.7271 149.502 29.0228C149.502 29.3186 149.737 29.5583 150.027 29.5583H150.671C150.726 29.5583 150.781 29.5629 150.833 29.5719C150.863 29.5771 150.892 29.5796 150.922 29.5796C151.173 29.5796 151.396 29.3953 151.439 29.1344Z" fill="#FBB540"/>
<path d="M149.474 32.9674L148.841 33.6128C148.636 33.822 148.636 34.1609 148.841 34.3701C148.944 34.4747 149.078 34.5268 149.213 34.5268C149.347 34.5268 149.481 34.4747 149.584 34.3701L150.217 33.7247C150.422 33.5155 150.422 33.1765 150.217 32.9674C150.012 32.7584 149.679 32.7584 149.474 32.9674Z" fill="#FBB540"/>
<path d="M147.149 35.3367L146.852 35.6397C146.647 35.8488 146.647 36.188 146.852 36.3971C146.955 36.5014 147.089 36.5538 147.224 36.5538C147.358 36.5538 147.493 36.5014 147.595 36.3971L147.892 36.0942C148.097 35.885 148.097 35.5459 147.892 35.3367C147.687 35.1279 147.355 35.1279 147.149 35.3367Z" fill="#FBB540"/>
</svg>
