<svg width="75" height="75" viewBox="0 0 75 75" fill="none" xmlns="http://www.w3.org/2000/svg">
<path d="M23.4375 62.5H59.375L68.75 71.875V39.0625C68.75 35.625 65.9375 32.8125 62.5 32.8125H23.4375C20 32.8125 17.1875 35.625 17.1875 39.0625V56.25C17.1875 59.6875 20 62.5 23.4375 62.5Z" fill="#558B2F"/>
<path d="M45 51.25H39.375L38.2813 54.5313H34.8438L40.625 38.9062H43.5938L49.375 54.5313H45.9375L45 51.25ZM40.1563 48.75H44.0625L42.1875 42.8125L40.1563 48.75Z" fill="#1B5E20"/>
<path d="M51.5625 39.0625H15.625L6.25 48.4375V12.5C6.25 9.0625 9.0625 6.25 12.5 6.25H51.5625C55 6.25 57.8125 9.0625 57.8125 12.5V32.8125C57.8125 36.25 55 39.0625 51.5625 39.0625Z" fill="#8BC34A"/>
<path d="M39.6875 22.1875C39.6875 23.75 39.375 25 38.9062 26.0938C38.4375 27.1875 37.8125 28.125 36.875 28.75L39.5312 30.7813L37.5 32.6563L34.0625 30C33.75 30 33.2812 30.1563 32.8125 30.1563C31.875 30.1563 30.9375 30 30 29.6875C29.2188 29.375 28.4375 28.75 27.8125 28.125C27.1875 27.5 26.7187 26.5625 26.4062 25.625C26.0937 24.6875 25.9375 23.5938 25.9375 22.3438V21.7188C25.9375 20.4688 26.0937 19.375 26.4062 18.4375C26.7187 17.5 27.1875 16.5625 27.8125 15.9375C28.4375 15.3125 29.0625 14.6875 30 14.375C30.7812 14.0625 31.7187 13.9062 32.8125 13.9062C33.75 13.9062 34.6875 14.0625 35.625 14.375C36.4062 14.6875 37.1875 15.3125 37.8125 15.9375C38.4375 16.5625 38.9062 17.5 39.2187 18.4375C39.5312 19.375 39.6875 20.4688 39.6875 21.7188V22.1875ZM36.25 21.4063C36.25 19.6875 35.9375 18.4375 35.3125 17.6563C34.6875 16.7188 33.9062 16.4063 32.8125 16.4063C31.7187 16.4063 30.7812 16.875 30.3125 17.6563C29.6875 18.5938 29.375 19.8438 29.375 21.4063V22.1875C29.375 22.9688 29.5312 23.75 29.6875 24.375C29.8437 25 30 25.625 30.3125 25.9375C30.625 26.4063 30.9375 26.7188 31.4062 26.875C31.875 27.0313 32.3437 27.1875 32.8125 27.1875C33.9062 27.1875 34.8437 26.7188 35.3125 25.9375C35.9375 25 36.25 23.75 36.25 22.0313V21.4063Z" fill="white"/>
</svg>
