<svg width="74" height="74" viewBox="0 0 74 74" fill="none" xmlns="http://www.w3.org/2000/svg">
<path d="M51.3233 33.8139C52.7267 30.6107 53.5003 27.1672 53.6017 23.6714C53.6004 23.0097 53.5598 22.3485 53.4801 21.6916C52.9874 17.5743 50.9715 13.7906 47.829 11.0851C44.6865 8.3797 40.6451 6.94855 36.5003 7.07339C32.3556 7.19822 28.4077 8.87 25.4337 11.7597C22.4597 14.6493 20.6751 18.5475 20.4312 22.687C20.409 23.0078 20.3979 23.3396 20.3979 23.6714C20.3979 32.8406 27.8307 46.9096 36.9998 46.9096C40.4728 46.9096 43.6804 44.9077 46.3349 41.9102C44.4982 42.2653 42.6311 42.4394 40.7604 42.4301H40.6609C39.5715 43.1486 38.3041 43.5506 36.9998 43.5914C30.5847 43.5914 23.7161 31.9004 23.7161 23.6714C23.7161 23.3949 23.7272 23.1184 23.7493 22.8419C29.9272 22.8465 35.9931 21.1926 41.3135 18.0526C44.0689 19.4749 47.0046 20.5168 50.0402 21.1496C50.2054 21.9799 50.287 22.8248 50.2836 23.6714C50.2836 27.3988 48.8677 31.8341 46.7331 35.5726C48.3187 35.1429 49.8566 34.5537 51.3233 33.8139Z" fill="#3B4551"/>
<path d="M15.4197 25.0538C15.6012 25.0538 15.781 25.018 15.9488 24.9486C16.1165 24.8791 16.2689 24.7773 16.3973 24.6489C16.5257 24.5205 16.6275 24.3681 16.697 24.2003C16.7665 24.0326 16.8022 23.8528 16.8022 23.6712C16.8022 23.2527 16.8125 22.8438 16.8438 22.4151C17.0852 18.5159 18.4526 14.7706 20.7804 11.6333C23.1082 8.49597 26.2963 6.10147 29.958 4.74018C33.6198 3.3789 37.5978 3.10932 41.4097 3.96415C45.2216 4.81897 48.7036 6.76147 51.4334 9.55606C54.5313 12.7407 56.5035 16.8506 57.0496 21.2598C57.1434 22.0602 57.1921 22.8653 57.1953 23.6712C57.1896 24.988 57.0742 26.302 56.8502 27.5997L56.6342 28.8785L57.8964 29.1761C58.6455 29.3533 59.3122 29.7795 59.7876 30.3849C60.2631 30.9903 60.519 31.7391 60.5135 32.5088C60.514 33.4193 60.1533 34.2927 59.5106 34.9375C58.8679 35.5824 57.9956 35.946 57.0852 35.9485C56.1994 35.9543 55.3475 35.6083 54.7165 34.9866L53.9809 34.2608L53.0763 34.7604C48.8864 37.1451 44.0924 38.257 39.2806 37.9602C39.0186 37.4629 38.6021 37.0643 38.0939 36.8243C37.5857 36.5843 37.0132 36.516 36.4628 36.6297C35.9123 36.7434 35.4138 37.0329 35.0422 37.4546C34.6706 37.8763 34.4462 38.4073 34.4026 38.9677C34.3591 39.528 34.4989 40.0874 34.8009 40.5614C35.1029 41.0354 35.5508 41.3984 36.0771 41.5957C36.6033 41.793 37.1795 41.8139 37.7187 41.6553C38.2579 41.4967 38.7309 41.1672 39.0665 40.7163C39.6364 40.7453 40.2011 40.7659 40.7552 40.7659C45.2244 40.7959 49.6313 39.717 53.5812 37.6259C54.6103 38.3387 55.8334 38.7184 57.0852 38.7136C58.4917 38.7109 59.8555 38.2304 60.9532 37.351C62.0508 36.4716 62.8172 35.2453 63.1266 33.8733C63.4361 32.5013 63.2703 31.0648 62.6563 29.7994C62.0424 28.5339 61.0169 27.5145 59.7477 26.9083C59.887 25.8349 59.958 24.7536 59.9605 23.6712C59.9571 22.7599 59.9024 21.8495 59.7969 20.9444C59.1808 15.9241 56.9366 11.244 53.4079 7.62047C50.3048 4.44454 46.3472 2.2369 42.0146 1.26515C37.682 0.293407 33.1606 0.599281 28.9984 2.1457C24.8362 3.69212 21.2119 6.41268 18.5649 9.9776C15.9178 13.5425 14.3617 17.7987 14.0852 22.2303C14.0495 22.7067 14.0371 23.1835 14.0371 23.6712C14.0371 23.8528 14.0728 24.0326 14.1423 24.2003C14.2118 24.3681 14.3136 24.5205 14.442 24.6489C14.5704 24.7773 14.7228 24.8791 14.8906 24.9486C15.0583 25.018 15.2381 25.0538 15.4197 25.0538Z" fill="#2B77C0"/>
<path d="M68.3274 61.1306C67.3813 57.6614 65.6435 55.7602 62.178 54.6909C59.0212 53.6325 49.282 50.2106 46.4652 49.1152C44.2183 53.2673 40.9635 56.7878 37.0001 59.353C33.0368 56.7878 29.782 53.2673 27.535 49.1152C24.7183 50.2106 14.979 53.6325 11.8222 54.6909C8.35669 55.7602 6.61891 57.6614 5.67285 61.1306C4.60257 65.0554 4.41113 69.2416 4.41113 73.2902H69.5891C69.5891 69.2416 69.3977 65.0554 68.3274 61.1306ZM61.1692 66.2331H52.1597C51.7615 66.2331 51.3796 66.0749 51.098 65.7933C50.8164 65.5117 50.6582 65.1297 50.6582 64.7315C50.6582 64.3332 50.8164 63.9513 51.098 63.6697C51.3796 63.3881 51.7615 63.2299 52.1597 63.2299H61.1692C61.5674 63.2299 61.9493 63.3881 62.2309 63.6697C62.5125 63.9513 62.6707 64.3332 62.6707 64.7315C62.6707 65.1297 62.5125 65.5117 62.2309 65.7933C61.9493 66.0749 61.5674 66.2331 61.1692 66.2331Z" fill="#3B4551"/>
<path d="M29.1292 25.6068C28.7625 25.6068 28.4108 25.7524 28.1515 26.0117C27.8922 26.271 27.7466 26.6227 27.7466 26.9894C27.7466 27.3561 27.8922 27.7077 28.1515 27.967C28.4108 28.2263 28.7625 28.372 29.1292 28.372H32.4879C32.8546 28.372 33.2062 28.2263 33.4655 27.967C33.7248 27.7077 33.8705 27.3561 33.8705 26.9894C33.8705 26.6227 33.7248 26.271 33.4655 26.0117C33.2062 25.7524 32.8546 25.6068 32.4879 25.6068H29.1292Z" fill="#2B77C0"/>
<path d="M41.5125 25.6068C41.1458 25.6068 40.7941 25.7524 40.5348 26.0117C40.2755 26.271 40.1299 26.6227 40.1299 26.9894C40.1299 27.3561 40.2755 27.7077 40.5348 27.967C40.7941 28.2263 41.1458 28.372 41.5125 28.372H44.8711C45.2378 28.372 45.5895 28.2263 45.8488 27.967C46.108 27.7077 46.2537 27.3561 46.2537 26.9894C46.2537 26.6227 46.108 26.271 45.8488 26.0117C45.5895 25.7524 45.2378 25.6068 44.8711 25.6068H41.5125Z" fill="#2B77C0"/>
</svg>
