<svg width="24" height="24" viewBox="0 0 24 24" fill="none" xmlns="http://www.w3.org/2000/svg">
<path d="M9.29478 10.9836C12.1243 10.9836 14.4181 8.68996 14.4181 5.86033C14.4181 3.03086 12.1243 0.737061 9.29478 0.737061C6.46531 0.737061 4.17151 3.03086 4.17151 5.86033C4.17424 8.6889 6.46637 10.9809 9.29478 10.9836ZM9.29478 1.70643C11.589 1.70643 13.4487 3.56639 13.4487 5.86033C13.4487 8.15459 11.589 10.0142 9.29478 10.0142C7.00068 10.0142 5.14103 8.15459 5.14103 5.86033C5.14361 3.56729 7.00174 1.70916 9.29478 1.70643Z" fill="#293A96" fill-opacity="0.53"/>
<path d="M22.6096 13.8482L18.4315 11.6235C18.2875 11.545 18.1133 11.5469 17.971 11.6282L14.1467 13.7222C12.7459 12.6801 11.0687 12.1373 9.28525 12.1373C7.06525 12.1421 5.00527 13.0049 3.4784 14.5753C1.93212 16.1602 1.08383 18.3269 1.08883 20.6777C1.08959 20.9451 1.30613 21.1617 1.57344 21.1624L15.0579 21.1382C15.6917 21.9253 16.5067 22.5472 17.4329 22.951L17.9952 23.1982C18.0563 23.2254 18.1225 23.2386 18.1892 23.2369C18.2556 23.2357 18.3213 23.2227 18.383 23.1982L19.0179 22.9219C21.3508 21.9431 22.8682 19.6596 22.8665 17.1296V14.2795C22.8666 14.0995 22.768 13.9339 22.6096 13.8482ZM2.07275 20.1882C2.17443 18.2832 2.91605 16.5433 4.17637 15.249C5.51883 13.8676 7.3365 13.1066 9.28994 13.1066H9.30449C10.909 13.1066 12.4116 13.6108 13.6572 14.5656V17.1878C13.658 18.2288 13.9177 19.2532 14.4132 20.1686L2.07275 20.1882ZM21.8971 17.1296C21.898 19.2717 20.6115 21.2044 18.635 22.0301H18.6302L18.1892 22.2191L17.8207 22.0591C15.8822 21.2121 14.6287 19.2985 14.6266 17.1831V14.5608L18.2084 12.5978L21.8971 14.5656V17.1296Z" fill="#293A96" fill-opacity="0.53"/>
<path d="M16.8804 16.8727C16.7064 16.6694 16.4005 16.6456 16.197 16.8195C15.9936 16.9935 15.9698 17.2995 16.1438 17.5028L17.2439 18.7873C17.3364 18.8947 17.4708 18.9565 17.6123 18.957C17.7234 18.9579 17.8313 18.9203 17.9176 18.8503L20.4769 16.7711C20.6844 16.601 20.7147 16.2951 20.5446 16.0875C20.3748 15.88 20.0688 15.8497 19.8614 16.0197L17.6705 17.8035L16.8804 16.8727Z" fill="#293A96" fill-opacity="0.53"/>
</svg>
